<?xml version="1.0" standalone="no"?>
<!DOCTYPE svg PUBLIC "-//W3C//DTD SVG 20010904//EN"
 "http://www.w3.org/TR/2001/REC-SVG-20010904/DTD/svg10.dtd">
<svg version="1.0" xmlns="http://www.w3.org/2000/svg"
 width="924.000000pt" height="924.000000pt" viewBox="0 0 924.000000 924.000000"
 preserveAspectRatio="xMidYMid meet">
<metadata>
Created by potrace 1.14, written by Peter Selinger 2001-2017
</metadata>
<g transform="translate(0.000000,924.000000) scale(0.100000,-0.100000)"
fill="#000000" stroke="none">
<path d="M3938 9235 c-1 -2 -41 -6 -88 -9 -47 -3 -96 -8 -110 -10 -14 -3 -47
-8 -75 -11 -84 -12 -143 -21 -182 -29 -15 -3 -41 -8 -58 -11 -16 -3 -41 -7
-55 -10 -14 -3 -45 -10 -70 -15 -25 -5 -55 -11 -67 -14 -129 -27 -441 -118
-526 -154 -21 -8 -44 -15 -52 -15 -8 0 -15 -4 -15 -9 0 -4 -7 -8 -16 -8 -13 0
-111 -39 -244 -98 -19 -9 -37 -16 -40 -16 -25 -4 -448 -230 -477 -255 -7 -6
-15 -11 -18 -11 -5 0 -191 -117 -210 -133 -5 -4 -54 -39 -108 -78 -55 -38
-105 -76 -114 -84 -8 -8 -17 -15 -21 -15 -4 0 -30 -22 -59 -48 -28 -26 -75
-67 -104 -92 -72 -60 -443 -431 -501 -500 -177 -211 -190 -243 -184 -460 2
-84 9 -156 15 -168 7 -12 9 -22 6 -22 -10 0 29 -55 54 -74 68 -56 106 -64 311
-71 367 -13 375 -14 437 -65 31 -27 102 -139 145 -230 36 -76 78 -170 78 -174
0 -2 10 -25 22 -52 12 -27 23 -51 23 -54 1 -3 6 -16 12 -30 6 -14 21 -50 32
-80 12 -30 28 -69 36 -87 8 -17 15 -34 15 -38 0 -4 21 -59 46 -123 79 -201 96
-247 99 -257 1 -5 7 -23 14 -40 7 -16 37 -95 68 -175 30 -80 72 -190 93 -245
22 -55 62 -161 90 -235 29 -74 56 -144 61 -155 10 -23 85 -221 106 -280 8 -22
20 -53 28 -70 14 -32 27 -65 30 -77 2 -5 4 -10 5 -13 1 -3 3 -8 5 -12 1 -5 6
-19 12 -33 6 -14 19 -45 28 -70 9 -25 21 -54 25 -65 68 -161 89 -186 159 -187
63 -1 97 31 146 136 39 84 201 496 205 521 1 2 12 29 25 60 14 30 25 56 24 58
0 1 5 16 11 32 6 17 17 46 25 65 50 137 85 229 96 255 7 17 13 32 14 35 4 11
17 46 25 65 5 11 36 94 70 185 34 91 65 174 69 185 5 11 9 23 10 27 1 5 12 33
26 63 13 30 21 55 18 55 -3 0 -1 6 4 13 5 6 20 41 33 77 13 36 27 70 31 76 5
6 10 19 12 30 2 10 8 28 14 39 6 11 16 38 23 60 7 22 16 45 20 50 4 6 13 28
20 50 7 22 21 58 31 80 9 22 43 101 74 175 109 260 219 446 267 452 7 1 144 2
303 3 340 2 382 8 441 61 47 43 58 72 58 163 0 135 -39 188 -164 218 -42 10
-135 12 -395 9 -187 -2 -347 -6 -355 -8 -13 -4 -83 -20 -100 -23 -14 -2 -102
-45 -116 -57 -146 -119 -224 -242 -359 -573 -16 -38 -32 -74 -37 -79 -4 -6 -8
-17 -8 -25 0 -9 -6 -27 -13 -41 -7 -14 -21 -47 -31 -75 -10 -27 -21 -59 -26
-70 -19 -45 -100 -256 -100 -261 0 -3 -6 -20 -14 -37 -7 -18 -24 -59 -36 -92
-12 -33 -26 -69 -31 -80 -5 -11 -25 -63 -44 -115 -19 -52 -39 -104 -44 -115
-5 -11 -31 -78 -59 -150 -128 -336 -156 -405 -163 -405 -5 0 -9 7 -9 15 0 8
-4 23 -9 33 -12 23 -46 105 -46 112 -1 3 -20 55 -44 115 -76 195 -107 276
-188 490 -44 116 -84 219 -88 230 -5 11 -9 22 -10 25 -1 3 -5 12 -8 20 -3 8
-16 42 -28 75 -12 33 -26 71 -32 85 -6 14 -11 27 -12 30 -1 3 -5 14 -10 25 -4
11 -17 43 -27 70 -10 28 -23 59 -27 70 -5 11 -26 63 -46 115 -21 52 -48 119
-61 148 -13 29 -24 55 -24 58 0 17 -117 234 -152 282 -76 103 -165 169 -252
188 -68 15 -126 20 -256 23 -80 1 -146 4 -148 6 -5 5 36 52 163 185 73 77 232
227 290 275 27 22 59 50 71 61 12 12 37 32 56 45 18 13 38 28 44 34 6 5 23 19
38 30 16 11 43 31 61 45 18 14 41 31 51 37 11 7 52 35 92 63 41 27 78 50 83
50 5 0 9 5 9 10 0 6 6 10 13 10 7 0 23 8 37 18 80 57 435 236 580 291 30 12
64 25 75 30 22 10 147 55 155 56 3 1 52 16 110 34 103 33 341 94 410 106 19 3
43 8 53 11 10 3 30 7 45 9 27 4 60 9 125 21 35 6 77 11 202 21 84 7 693 7 780
0 62 -5 173 -18 200 -23 11 -3 34 -6 50 -9 62 -8 110 -17 115 -20 3 -2 25 -6
50 -10 25 -4 47 -8 51 -10 3 -2 19 -7 35 -9 58 -11 74 -15 83 -21 5 -3 22 -7
38 -9 47 -7 317 -89 403 -123 8 -4 17 -7 20 -8 3 -1 14 -5 25 -10 11 -4 43
-17 70 -28 28 -10 61 -24 75 -30 14 -6 27 -11 30 -12 44 -15 255 -120 360
-178 95 -53 101 -57 183 -109 32 -21 60 -38 63 -38 2 0 22 -12 43 -27 21 -16
49 -35 61 -43 42 -28 216 -158 234 -175 6 -5 38 -32 71 -60 109 -90 238 -214
409 -393 l49 -51 -34 8 c-19 5 -54 14 -79 21 -25 7 -52 14 -60 15 -8 2 -49 11
-90 20 -41 9 -91 18 -110 21 -19 3 -46 7 -60 10 -24 4 -51 7 -175 20 -74 8
-356 8 -445 0 -65 -6 -119 -13 -175 -22 -16 -3 -41 -7 -55 -9 -75 -13 -105
-19 -205 -45 -411 -109 -734 -289 -1016 -570 -244 -242 -364 -438 -448 -735
-20 -70 -28 -103 -36 -160 -3 -16 -7 -40 -9 -52 -27 -130 -27 -393 -1 -538 3
-16 7 -43 10 -60 7 -49 15 -88 26 -123 6 -18 12 -39 13 -45 3 -14 7 -25 49
-132 62 -160 137 -285 248 -415 220 -255 509 -447 874 -581 44 -16 89 -33 100
-38 18 -8 69 -23 87 -25 3 -1 10 -4 14 -9 4 -4 17 -7 28 -7 12 0 67 -13 124
-29 57 -17 119 -33 139 -36 19 -3 38 -7 42 -10 4 -2 18 -6 32 -9 82 -15 520
-107 549 -115 55 -14 192 -62 223 -77 15 -8 27 -19 27 -24 0 -10 -76 -52 -150
-83 -37 -16 -73 -19 -215 -20 -301 -2 -388 16 -525 109 -92 62 -134 77 -200
70 -74 -8 -208 -63 -245 -101 -73 -72 -52 -159 63 -271 51 -50 188 -144 209
-144 7 0 13 -4 13 -10 0 -5 3 -9 8 -8 4 1 29 -8 56 -20 27 -12 54 -22 62 -22
7 0 15 -4 18 -9 3 -5 16 -11 28 -14 13 -3 41 -11 63 -17 63 -17 96 -24 175
-36 129 -20 333 -19 420 2 14 3 32 6 40 6 21 0 102 17 120 25 8 3 21 8 28 10
6 1 18 5 25 6 6 2 25 9 40 15 16 7 30 12 32 12 15 0 131 60 190 97 91 59 167
140 207 221 29 59 33 76 35 166 2 56 -3 119 -9 141 -6 22 -12 42 -13 45 -4 18
-43 82 -72 118 -34 42 -133 122 -151 122 -5 0 -20 8 -33 18 -13 10 -44 26 -69
36 -25 10 -58 25 -75 32 -26 11 -149 48 -195 59 -8 1 -42 10 -75 19 -33 8 -76
18 -95 21 -19 3 -43 8 -52 11 -24 7 -60 15 -88 18 -45 6 -104 17 -168 32 -62
14 -114 24 -142 29 -8 1 -22 5 -30 8 -15 5 -63 18 -91 23 -9 2 -67 19 -130 39
-63 19 -121 37 -129 39 -20 5 -117 43 -155 61 -16 7 -50 21 -75 31 -25 9 -52
22 -60 28 -8 6 -33 20 -55 31 -167 83 -373 257 -477 405 -47 66 -115 193 -121
227 -2 10 -7 25 -10 33 -10 27 -36 144 -42 195 -14 103 -13 341 1 420 19 108
37 165 90 285 24 55 89 169 116 205 71 93 169 200 236 256 185 156 450 293
672 349 25 6 52 14 60 17 18 7 27 9 65 17 17 3 41 8 55 11 14 3 41 7 60 9 19
3 62 8 95 13 74 10 430 9 505 -1 108 -14 221 -36 302 -57 46 -12 88 -22 93
-24 6 -1 17 -4 25 -7 8 -3 44 -16 80 -28 143 -49 333 -144 455 -228 222 -153
369 -323 491 -570 16 -34 40 -62 65 -79 33 -22 45 -24 90 -19 63 8 192 58 236
92 46 35 66 78 59 126 -11 66 -101 242 -207 403 -37 55 -82 129 -100 165 -19
36 -37 67 -41 68 -5 2 -8 8 -8 14 0 14 -91 174 -152 267 -26 41 -48 77 -48 80
0 3 -11 18 -25 33 -14 15 -25 30 -25 33 0 10 -209 285 -247 325 -18 19 -33 41
-33 48 0 6 -4 12 -8 12 -4 0 -42 39 -84 88 -126 144 -357 371 -473 462 -22 17
-42 35 -45 39 -3 4 -21 18 -40 31 -19 13 -37 27 -40 30 -3 3 -32 25 -65 50
-33 25 -62 47 -65 50 -3 3 -12 10 -21 15 -9 6 -74 49 -145 96 -71 47 -165 108
-209 134 -77 46 -408 217 -470 242 -16 7 -72 30 -122 52 -51 22 -93 37 -93 35
0 -2 -12 2 -27 10 -36 18 -219 79 -353 116 -58 17 -127 37 -155 45 -27 8 -66
17 -85 20 -19 3 -64 12 -100 20 -36 9 -76 18 -90 20 -61 12 -97 18 -117 20
-13 2 -40 6 -60 9 -69 12 -134 19 -293 33 -65 5 -717 13 -722 8z"/>
<path d="M6497 6174 c-1 -1 -42 -4 -91 -8 -49 -3 -105 -10 -125 -16 -20 -5
-47 -11 -61 -14 -53 -9 -126 -30 -150 -43 -14 -7 -30 -13 -36 -13 -16 0 -145
-72 -190 -106 -99 -76 -178 -186 -200 -283 -10 -41 -20 -151 -14 -151 3 0 6
-17 6 -38 5 -135 97 -273 232 -349 64 -36 202 -87 262 -98 18 -3 36 -7 39 -9
3 -2 22 -7 41 -10 19 -3 46 -8 60 -11 20 -5 199 -38 310 -59 14 -2 59 -11 100
-20 41 -8 89 -18 105 -21 17 -3 35 -7 40 -9 6 -1 28 -7 50 -11 55 -12 55 -12
58 -15 1 -1 9 -3 18 -5 9 -1 43 -11 75 -21 33 -10 62 -18 66 -18 3 -1 10 -4
14 -8 4 -5 15 -8 25 -8 10 0 43 -11 74 -24 30 -14 55 -23 55 -21 0 5 156 -65
215 -96 22 -12 58 -31 80 -42 22 -11 66 -38 98 -59 32 -21 62 -38 67 -38 5 0
10 -3 12 -7 2 -5 30 -28 63 -52 109 -80 262 -244 319 -341 75 -128 115 -232
133 -345 15 -93 7 -436 -12 -512 -3 -13 -7 -31 -9 -40 -2 -10 -12 -38 -21 -63
-69 -185 -161 -331 -301 -476 -85 -88 -234 -201 -344 -263 -57 -31 -199 -101
-207 -101 -4 0 -19 -6 -33 -13 -39 -20 -234 -81 -295 -92 -16 -3 -46 -8 -65
-11 -19 -3 -42 -7 -52 -10 -19 -6 -125 -16 -188 -18 -25 -1 -50 -5 -57 -9 -6
-4 -14 -3 -17 2 -4 5 -18 6 -34 2 -15 -5 -36 -5 -47 -1 -11 4 -34 4 -52 0 -18
-4 -35 -5 -38 -2 -3 3 -36 6 -73 8 -64 1 -139 9 -192 19 -14 3 -41 7 -60 9
-33 5 -59 10 -105 20 -272 63 -472 145 -660 271 -55 37 -101 71 -103 76 -2 5
-7 9 -11 9 -18 0 -271 245 -271 262 0 3 -6 13 -13 20 -18 19 -76 104 -85 125
-22 54 -87 155 -110 172 -15 10 -43 20 -62 22 -87 6 -309 -88 -310 -130 0 -34
-21 8 -29 60 -12 68 -19 107 -27 139 -3 14 -7 34 -9 46 -1 11 -8 45 -14 75 -6
30 -13 65 -15 79 -3 14 -14 75 -26 135 -11 61 -23 121 -25 135 -3 14 -7 36
-11 50 -3 14 -8 41 -10 60 -3 19 -8 42 -11 50 -3 8 -7 29 -10 45 -2 17 -15 84
-28 150 -13 66 -26 134 -29 150 -3 17 -8 40 -11 53 -12 51 -14 61 -19 93 -3
19 -8 43 -10 54 -2 11 -11 56 -20 100 -29 141 -48 207 -65 227 -20 25 -66 49
-75 40 -4 -3 -19 -7 -34 -8 -37 -2 -36 -1 -65 -27 -28 -24 -83 -150 -188 -432
-32 -88 -64 -168 -69 -177 -6 -10 -10 -23 -10 -30 -1 -7 -9 -31 -20 -53 -10
-22 -16 -43 -14 -47 3 -5 1 -8 -4 -8 -5 0 -9 -6 -9 -12 -1 -12 -83 -231 -103
-273 -7 -16 -19 -50 -25 -75 -1 -3 -7 -18 -14 -34 -17 -41 -92 -239 -95 -251
-2 -5 -9 -23 -15 -40 -29 -70 -75 -201 -73 -207 1 -5 -3 -8 -8 -8 -6 0 -10 -6
-10 -13 0 -7 -32 -96 -71 -197 -40 -102 -72 -191 -72 -197 0 -7 -4 -13 -9 -13
-4 0 -8 -6 -8 -14 0 -18 -91 -240 -137 -332 -65 -131 -109 -170 -195 -169 -27
0 -48 -3 -48 -7 0 -4 -11 -3 -25 2 -15 6 -26 6 -30 -1 -4 -5 -11 -7 -16 -3 -5
3 -44 7 -87 8 -104 3 -130 18 -191 109 -30 44 -131 248 -131 265 0 4 -6 18
-13 32 -7 14 -41 97 -76 185 -35 88 -69 174 -76 190 -11 25 -25 66 -30 85 -1
3 -7 18 -13 33 -7 16 -12 31 -12 33 0 3 -11 30 -25 60 -14 30 -25 57 -25 60 0
4 -27 77 -60 164 -54 145 -67 178 -91 235 -4 11 -35 92 -68 180 -127 338 -335
864 -361 909 -22 41 -69 65 -120 62 -45 -4 -90 -37 -90 -68 0 -10 -4 -18 -10
-18 -5 0 -9 -3 -8 -7 1 -5 -6 -43 -16 -85 -9 -42 -19 -89 -22 -105 -3 -15 -12
-59 -20 -98 -9 -38 -18 -83 -20 -100 -3 -16 -11 -61 -19 -100 -8 -38 -17 -86
-20 -105 -3 -19 -8 -42 -10 -50 -2 -8 -6 -26 -9 -40 -5 -34 -35 -189 -41 -220
-3 -14 -8 -41 -11 -60 -3 -19 -10 -55 -16 -80 -14 -64 -16 -73 -22 -116 -4
-22 -15 -84 -26 -139 -10 -55 -28 -149 -39 -210 -11 -60 -23 -123 -26 -140
-14 -73 -26 -143 -31 -178 -3 -21 -7 -44 -8 -50 -2 -7 -6 -34 -10 -62 -4 -27
-10 -61 -12 -75 -19 -115 -24 -425 -10 -700 13 -286 32 -367 106 -475 34 -50
240 -259 344 -350 38 -33 78 -69 90 -80 12 -11 42 -36 66 -55 25 -19 46 -38
48 -42 2 -4 8 -8 14 -8 6 0 16 -6 22 -14 6 -8 58 -48 116 -90 58 -41 110 -80
117 -86 7 -5 14 -10 16 -10 2 0 44 -26 93 -57 269 -173 495 -289 809 -415 86
-34 319 -116 350 -122 6 -1 37 -10 70 -20 33 -10 67 -19 75 -21 8 -2 44 -11
80 -20 36 -10 74 -19 85 -21 11 -2 38 -8 60 -13 22 -5 53 -12 69 -15 16 -3 52
-10 80 -16 28 -5 67 -12 86 -14 19 -3 35 -5 35 -6 0 -1 14 -3 30 -5 17 -1 46
-6 67 -9 20 -4 54 -9 75 -11 21 -2 74 -7 118 -12 151 -15 745 -8 899 12 22 3
67 7 100 9 34 3 68 7 76 9 8 3 38 9 65 13 28 4 56 8 63 10 8 1 46 8 85 15 79
14 86 15 90 19 1 1 11 3 22 5 34 6 78 15 120 27 22 5 47 11 56 13 23 5 153 43
224 67 33 10 67 21 75 23 39 9 230 82 370 142 254 109 563 277 758 412 41 28
77 51 82 51 5 0 10 3 12 8 2 4 39 34 83 66 110 81 225 175 334 271 78 68 324
316 392 395 35 41 70 79 77 83 6 4 12 15 12 22 0 8 3 15 8 15 4 0 32 32 62 71
30 39 61 77 68 84 6 8 12 18 12 24 0 6 4 11 8 11 14 0 259 378 302 465 8 17
19 37 26 45 6 8 28 48 49 88 20 39 41 75 46 78 5 3 7 9 4 14 -3 5 -1 11 5 15
13 8 182 355 205 420 9 28 20 57 23 65 9 26 12 37 30 120 10 41 15 71 29 170
8 50 8 356 1 410 -14 104 -22 143 -62 290 -39 144 -161 369 -268 497 -50 58
-217 224 -267 263 -24 19 -50 41 -57 48 -7 6 -15 12 -18 12 -3 0 -32 20 -63
44 -125 94 -303 189 -538 286 -138 58 -473 153 -655 186 -14 3 -81 16 -150 30
-69 14 -143 28 -165 30 -22 3 -56 9 -75 14 -19 5 -55 12 -79 15 -23 3 -55 11
-70 16 -14 6 -28 10 -31 10 -10 -1 -82 21 -106 31 l-24 11 23 20 c25 22 127
75 154 81 10 1 25 6 33 9 47 18 131 25 269 21 85 -2 167 -7 181 -10 14 -3 41
-8 60 -10 35 -5 104 -36 253 -115 103 -55 144 -59 252 -25 143 45 193 85 202
161 9 75 -71 171 -236 282 -93 62 -241 131 -321 148 -8 2 -15 4 -15 5 0 3
-144 30 -199 37 -41 5 -254 11 -259 7z m-5094 -2854 c19 -52 51 -135 70 -185
19 -49 63 -164 97 -255 34 -91 68 -180 77 -198 8 -18 16 -41 18 -52 2 -10 8
-27 13 -37 11 -21 113 -290 116 -307 2 -6 8 -22 13 -36 6 -14 23 -56 38 -95
15 -38 31 -79 36 -90 4 -11 22 -60 40 -108 52 -139 107 -188 232 -204 67 -8
580 -8 672 0 332 30 438 150 670 752 25 66 50 129 54 140 5 11 19 47 31 80 12
33 26 69 31 80 5 11 31 81 59 155 28 74 53 142 57 150 3 8 7 17 7 20 1 6 24
66 41 105 7 17 25 64 40 105 29 80 44 105 44 74 -1 -10 11 -73 24 -139 23
-108 30 -144 42 -210 2 -11 6 -31 8 -45 14 -63 28 -138 33 -170 3 -19 8 -38
10 -42 2 -3 7 -28 10 -54 3 -27 7 -51 10 -55 2 -4 6 -24 9 -45 3 -22 10 -59
16 -84 5 -25 12 -56 14 -70 11 -58 68 -354 92 -470 13 -69 27 -140 29 -159 12
-92 65 -129 178 -127 82 3 124 24 152 78 28 54 37 151 37 388 -1 172 -5 237
-22 330 -9 50 -18 103 -26 155 -2 11 -6 34 -10 50 -4 17 -8 44 -9 61 -2 17 -7
37 -11 44 -5 8 -4 11 2 7 6 -4 23 -30 38 -58 71 -136 211 -319 329 -428 98
-91 108 -99 201 -167 63 -45 90 -63 198 -128 65 -39 291 -149 319 -155 4 -1
33 -13 63 -27 60 -26 265 -90 318 -99 17 -3 39 -8 47 -10 13 -4 79 -14 120
-20 8 -1 29 -5 45 -8 151 -33 602 -41 750 -13 11 2 43 7 70 10 28 4 62 9 75
11 24 3 100 19 148 30 24 6 42 10 87 20 25 6 2 -21 -126 -147 -197 -194 -201
-197 -339 -301 -63 -48 -120 -91 -126 -96 -5 -4 -21 -14 -35 -21 -13 -7 -26
-16 -29 -20 -3 -4 -50 -36 -104 -70 -336 -212 -676 -367 -1051 -479 -77 -24
-151 -45 -165 -47 -14 -3 -43 -10 -65 -16 -22 -5 -47 -11 -55 -13 -352 -70
-359 -71 -590 -81 -129 -6 -132 -6 -165 -4 -11 0 -63 -1 -115 -2 -52 -2 -100
0 -107 5 -6 4 -14 3 -17 -2 -5 -7 -15 -7 -32 -1 -18 7 -23 7 -18 -2 4 -7 3 -8
-4 -4 -6 4 -60 9 -119 11 -224 9 -373 26 -504 56 -26 6 -55 12 -65 14 -11 2
-19 4 -19 5 0 1 -11 3 -25 5 -41 6 -300 76 -350 96 -14 5 -34 11 -45 14 -24 5
-103 32 -130 45 -11 5 -60 24 -110 44 -313 121 -658 312 -937 518 -161 120
-464 398 -651 598 l-69 73 7 66 c3 36 8 73 10 81 5 17 11 54 20 115 4 22 8 47
10 55 2 8 7 31 10 50 3 19 10 58 15 85 6 28 12 61 15 75 3 14 9 48 15 75 17
84 20 99 25 139 3 21 7 41 9 45 2 3 7 24 10 46 4 22 8 47 11 55 2 8 6 26 9 40
4 24 45 235 50 255 1 6 13 65 26 133 13 67 27 119 31 115 4 -5 22 -51 42 -103z"/>
</g>
</svg>
