<?xml version="1.0" standalone="no"?>
<!DOCTYPE svg PUBLIC "-//W3C//DTD SVG 20010904//EN"
 "http://www.w3.org/TR/2001/REC-SVG-20010904/DTD/svg10.dtd">
<svg version="1.0" xmlns="http://www.w3.org/2000/svg"
 width="822.000000pt" height="822.000000pt" viewBox="0 0 822.000000 822.000000"
 preserveAspectRatio="xMidYMid meet">
<metadata>
Created by potrace 1.14, written by Peter Selinger 2001-2017
</metadata>
<g transform="translate(0.000000,822.000000) scale(0.100000,-0.100000)"
fill="#000000" stroke="none">
<path d="M4909 6706 c-17 -16 -976 -160 -1152 -173 -48 -3 -91 -11 -97 -18
-14 -17 -101 -213 -222 -505 -127 -305 -168 -410 -399 -1025 -92 -247 -220
-585 -283 -750 l-114 -300 -46 -3 c-25 -2 -46 -1 -46 2 0 4 20 135 45 294 24
158 69 458 99 667 31 209 82 562 115 785 78 537 116 819 109 825 -5 6 -407
-33 -673 -65 -180 -22 -376 -36 -606 -46 l-156 -6 -42 -156 c-214 -791 -894
-3004 -1346 -4379 l-93 -283 34 0 c82 0 1090 72 1096 78 3 4 31 93 62 197 162
556 281 975 336 1180 34 127 102 379 151 560 49 182 99 376 111 433 l21 102
53 0 53 0 -5 -32 c-9 -68 -216 -2510 -212 -2512 1 -2 113 3 248 10 135 8 315
18 400 22 l155 7 76 225 c82 245 258 730 489 1355 128 345 262 722 312 875 13
39 18 45 46 48 18 2 32 1 32 -2 0 -2 -13 -87 -29 -188 -83 -511 -192 -1463
-231 -2001 -25 -348 -25 -327 3 -327 12 0 281 47 597 103 l575 103 12 159 c37
469 124 1441 183 2030 28 271 143 1257 181 1535 39 292 90 635 139 934 22 131
40 241 40 242 0 5 -16 5 -21 0z"/>
<path d="M7137 6529 c-303 -29 -705 -163 -1006 -335 -636 -363 -1000 -884
-967 -1384 10 -168 54 -284 168 -445 113 -160 295 -328 563 -520 290 -206 474
-367 573 -499 173 -231 161 -455 -33 -603 -148 -113 -319 -145 -510 -97 -206
53 -501 251 -611 409 -20 30 -40 55 -44 55 -10 0 -500 -963 -500 -981 0 -22
162 -201 257 -284 278 -244 559 -347 903 -332 321 15 574 78 845 213 321 159
588 421 749 733 106 208 153 369 176 606 22 224 -7 519 -70 700 -47 136 -132
303 -200 393 -93 123 -193 209 -424 363 -424 284 -510 374 -536 561 -12 88 -1
159 36 236 50 102 196 235 323 295 244 115 425 -113 366 -463 -9 -56 -15 -104
-12 -106 3 -3 225 59 494 137 l490 142 17 121 c10 66 22 155 27 196 13 92 -2
260 -32 357 -53 172 -160 311 -314 408 -169 106 -437 152 -728 124z"/>
</g>
</svg>
