<svg width="57" height="24" viewBox="0 0 57 24" fill="none" xmlns="http://www.w3.org/2000/svg">
<path d="M55.677 4.91524L39.2835 0.522614C39.1579 0.486872 39.0264 0.476723 38.8968 0.492766C38.7672 0.50881 38.6421 0.55072 38.5291 0.616013C38.416 0.681305 38.3171 0.76865 38.2385 0.872861C38.1598 0.977071 38.1028 1.09602 38.071 1.22267C38.0352 1.34826 38.0251 1.47976 38.0411 1.60936C38.0572 1.73895 38.0991 1.864 38.1644 1.97709C38.2296 2.09018 38.317 2.18901 38.4212 2.2677C38.5254 2.34639 38.6444 2.40335 38.771 2.43519L52.8205 6.21803L34.1346 17.0063C28.8499 20.0498 22.5737 20.8726 16.6831 19.2942C10.7925 17.7158 5.76861 13.8652 2.71368 8.58712C2.58106 8.35742 2.36262 8.18981 2.10642 8.12116C1.85023 8.05252 1.57725 8.08845 1.34755 8.22107C1.11785 8.35369 0.950237 8.57212 0.881589 8.82832C0.812941 9.08452 0.848879 9.3575 0.981497 9.5872C4.30636 15.3196 9.76707 19.5011 16.1681 21.2163C22.5692 22.9314 29.389 22.0405 35.1347 18.7385L53.8205 7.95021L50.0718 22.0088C50.0431 22.2478 50.1014 22.4892 50.2363 22.6886C50.3711 22.888 50.5734 23.0321 50.8059 23.0944C51.0384 23.1567 51.2856 23.1331 51.5021 23.0278C51.7186 22.9225 51.8899 22.7427 51.9844 22.5213L56.3771 6.12777C56.4128 6.00217 56.4229 5.87068 56.4069 5.74108C56.3909 5.61149 56.3489 5.48643 56.2837 5.37334C56.2184 5.26025 56.131 5.16143 56.0268 5.08274C55.9226 5.00405 55.8036 4.94709 55.677 4.91524V4.91524Z" fill="#122029"/>
</svg>
