<svg width="243" height="290" viewBox="0 0 243 290" fill="none" xmlns="http://www.w3.org/2000/svg">
<path d="M1.54097 238.015L44.5766 145.725C44.8967 145.01 45.3572 144.366 45.9307 143.833C46.5043 143.299 47.1792 142.886 47.9155 142.618C48.6517 142.35 49.4343 142.232 50.2168 142.273C50.9993 142.313 51.7657 142.51 52.4706 142.852C53.1857 143.172 53.8292 143.633 54.363 144.206C54.8968 144.78 55.3099 145.455 55.5779 146.191C55.8459 146.927 55.9632 147.71 55.923 148.492C55.8828 149.275 55.6858 150.041 55.3438 150.746L18.5458 229.91L140.198 185.633C174.568 173.081 202.555 147.407 218.019 114.245C233.483 81.0826 235.16 43.1404 222.683 8.74312C222.139 7.24768 222.211 5.59726 222.883 4.15494C223.556 2.71263 224.774 1.59657 226.269 1.05227C227.765 0.507977 229.415 0.580032 230.857 1.25259C232.3 1.92516 233.416 3.14313 233.96 4.63857C247.485 42.0289 245.643 83.2546 228.84 119.29C212.036 155.326 181.639 183.236 144.303 196.91L22.6504 241.187L101.725 278.178C102.935 278.967 103.819 280.166 104.215 281.555C104.612 282.944 104.494 284.429 103.884 285.739C103.273 287.048 102.211 288.093 100.892 288.682C99.5736 289.271 98.0865 289.364 96.7043 288.945L4.41415 245.909C3.69902 245.589 3.05548 245.129 2.52171 244.555C1.98793 243.982 1.57479 243.307 1.30681 242.57C1.03884 241.834 0.921493 241.052 0.961716 240.269C1.00194 239.487 1.19891 238.72 1.54097 238.015V238.015Z" fill="#E0FF00"/>
</svg>
