<svg width="50" height="41" viewBox="0 0 50 41" fill="none" xmlns="http://www.w3.org/2000/svg">
<g clip-path="url(#clip0_1_203)">
<path d="M19.9002 22.2779C20.0792 19.0845 21.6428 16.2712 24.0021 14.2768C26.3155 12.3179 29.4294 11.1206 32.8271 11.1206C36.2213 11.1206 39.3353 12.3179 41.6505 14.2768C44.0078 16.271 45.5717 19.0845 45.7525 22.2745C45.9313 25.5556 44.6125 28.6037 42.299 30.8631C39.94 33.1614 36.5844 34.6035 32.8271 34.6035C29.0698 34.6035 25.7077 33.1614 23.3502 30.8631C21.035 28.6035 19.7194 25.5554 19.9002 22.2779Z" fill="white"/>
<path d="M26.196 22.5627C26.2877 20.9242 27.0902 19.4806 28.3006 18.4573C29.4877 17.4523 31.0854 16.8379 32.8288 16.8379C34.5704 16.8379 36.1683 17.4523 37.3561 18.4573C38.5658 19.4806 39.3681 20.9242 39.4608 22.5612C39.5527 24.2446 38.8761 25.8087 37.6888 26.9679C36.4785 28.1471 34.7567 28.8871 32.8288 28.8871C30.901 28.8871 29.1758 28.1471 27.9661 26.9679C26.7783 25.8087 26.1033 24.2446 26.196 22.5627Z" fill="#265787"/>
<path d="M15.6656 25.9288C15.6771 26.5712 15.8819 27.82 16.1894 28.795C16.8354 30.859 17.9311 32.7687 19.456 34.4513C21.0208 36.1812 22.9475 37.5706 25.1733 38.5569C27.5125 39.5929 30.0471 40.1208 32.6798 40.1165C35.3083 40.1129 37.8431 39.5746 40.1823 38.5308C42.4079 37.5348 44.3329 36.1394 45.8952 34.4088C47.419 32.719 48.5131 30.8062 49.1609 28.7421C49.4865 27.6992 49.6923 26.6408 49.7748 25.5787C49.8555 24.5309 49.8215 23.4775 49.6733 22.4371C49.3833 20.3965 48.6771 18.4819 47.59 16.7365C46.5958 15.1327 45.3142 13.7287 43.7902 12.5467L43.7936 12.5442L28.4148 0.73558C28.4008 0.725195 28.3894 0.714041 28.3746 0.704426C27.3658 -0.0701894 25.6688 -0.0674971 24.5592 0.708657C23.4373 1.49366 23.3088 2.79193 24.3073 3.61058L24.3031 3.615L30.7175 8.83116L11.1669 8.85193H11.1408C9.5248 8.85385 7.97153 9.91404 7.66383 11.2538C7.34787 12.6188 8.44557 13.7512 10.1258 13.7573L10.1231 13.7633L20.0327 13.744L2.3496 27.3173C2.3271 27.3338 2.30268 27.3512 2.28191 27.3677C0.613835 28.645 0.0746039 30.769 1.12518 32.1131C2.19153 33.48 4.45883 33.4825 6.14422 32.121L15.795 24.2227C15.795 24.2227 15.6542 25.2888 15.6656 25.9288ZM40.4646 29.4992C38.4761 31.5252 35.6921 32.6738 32.68 32.68C29.6633 32.6852 26.8794 31.5467 24.891 29.5244C23.9192 28.5388 23.2056 27.4048 22.7652 26.1969C22.3323 25.0082 22.1658 23.739 22.2773 22.4788C22.3823 21.2362 22.7523 20.051 23.3427 18.9785C23.9227 17.9244 24.7215 16.9717 25.7081 16.166C27.6408 14.591 30.1017 13.7381 32.6754 13.7346C35.2519 13.7312 37.7109 14.5762 39.6458 16.1462C40.6304 16.9483 41.4285 17.8975 42.0084 18.95C42.6067 20.0281 42.9712 21.2201 43.0783 22.4485C43.1881 23.7078 43.0209 24.976 42.5884 26.1638C42.1473 27.3754 41.4361 28.5094 40.4646 29.4992Z" fill="#EA7600"/>
</g>
<defs>
<clipPath id="clip0_1_203">
<rect width="49.2308" height="40" fill="white" transform="translate(0.58667 0.125)"/>
</clipPath>
</defs>
</svg>
