<svg width="29" height="41" viewBox="0 0 29 41" fill="none" xmlns="http://www.w3.org/2000/svg">
<g clip-path="url(#clip0_1_143)">
<path d="M14.5312 40.7739L2.9875 37.5693L0.414978 8.71606H28.682L26.1068 37.5648L14.5312 40.7739Z" fill="#264DE4"/>
<path d="M23.9021 35.7278L26.1027 11.0752H14.5485V38.321L23.9021 35.7278Z" fill="#2965F1"/>
<path d="M6.31239 21.7765L6.62951 25.3152H14.5485V21.7765H6.31239ZM5.67505 14.614L5.99671 18.1527H14.5485V14.614H5.67505ZM14.5485 30.9669L14.533 30.971L10.5919 29.9069L10.34 27.0846H6.78763L7.28336 32.6409L14.5322 34.6531L14.5485 34.6487V30.9669Z" fill="#EBEBEB"/>
<path d="M7.0675 0.875H11.3534V2.66735H8.85986V4.45971H11.3536V6.25195H7.0675V0.875ZM12.2107 0.875H16.4966V2.43356H14.003V2.74525H16.4966V6.32996H12.2108V4.69328H14.7044V4.38159H12.2106V0.875H12.2107ZM17.3539 0.875H21.6399V2.43356H19.1463V2.74525H21.6399V6.32996H17.3539V4.69328H19.8476V4.38159H17.354V0.875H17.3539Z" fill="#F1F1F1"/>
<path d="M22.762 21.7765L23.4007 14.614H14.5362V18.1527H19.5226L19.2006 21.7765H14.5362V25.3152H18.8938L18.4829 29.9047L14.5361 30.9699V34.6515L21.7908 32.6409L21.8439 32.043L22.6756 22.7267L22.762 21.7765Z" fill="white"/>
</g>
<defs>
<clipPath id="clip0_1_143">
<rect width="28.3657" height="40" fill="white" transform="translate(0.365662 0.875)"/>
</clipPath>
</defs>
</svg>
