<svg width="27" height="41" viewBox="0 0 27 41" fill="none" xmlns="http://www.w3.org/2000/svg">
<g clip-path="url(#clip0_1_191)">
<path d="M6.66667 40.125C10.3467 40.125 13.3333 37.1383 13.3333 33.4583V26.7916H6.66667C2.98667 26.7916 0 29.7783 0 33.4583C0 37.1383 2.98667 40.125 6.66667 40.125Z" fill="#0ACF83"/>
<path d="M0 20.125C0 16.445 2.98667 13.4584 6.66667 13.4584H13.3333V26.7917H6.66667C2.98667 26.7917 0 23.805 0 20.125Z" fill="#A259FF"/>
<path d="M0 6.79167C0 3.11167 2.98667 0.125 6.66667 0.125H13.3333V13.4583H6.66667C2.98667 13.4583 0 10.4717 0 6.79167Z" fill="#F24E1E"/>
<path d="M13.3334 0.125H20C23.68 0.125 26.6667 3.11167 26.6667 6.79167C26.6667 10.4717 23.68 13.4583 20 13.4583H13.3334V0.125Z" fill="#FF7262"/>
<path d="M26.6667 20.125C26.6667 23.805 23.68 26.7917 20 26.7917C16.32 26.7917 13.3334 23.805 13.3334 20.125C13.3334 16.445 16.32 13.4584 20 13.4584C23.68 13.4584 26.6667 16.445 26.6667 20.125Z" fill="#1ABCFE"/>
</g>
<defs>
<clipPath id="clip0_1_191">
<rect width="26.6667" height="40" fill="white" transform="translate(0 0.125)"/>
</clipPath>
</defs>
</svg>
