<svg width="40" height="41" viewBox="0 0 40 41" fill="none" xmlns="http://www.w3.org/2000/svg">
<g clip-path="url(#clip0_1_189)">
<path d="M39.245 18.3425L21.78 0.880016C21.5409 0.640771 21.257 0.450984 20.9445 0.321498C20.632 0.192013 20.297 0.125366 19.9588 0.125366C19.6205 0.125366 19.2856 0.192013 18.9731 0.321498C18.6606 0.450984 18.3766 0.640771 18.1375 0.880016L14.5125 4.50502L19.1125 9.10502C19.655 8.91979 20.2387 8.89081 20.7969 9.02139C21.3551 9.15197 21.8653 9.43684 22.2694 9.8435C22.6734 10.2502 22.955 10.7622 23.082 11.3212C23.209 11.8802 23.1762 12.4637 22.9875 13.005L27.42 17.44C28.0758 17.2091 28.7907 17.2084 29.4469 17.438C30.1031 17.6676 30.6616 18.1139 31.0304 18.7033C31.3991 19.2927 31.5562 19.99 31.4757 20.6806C31.3952 21.3712 31.082 22.0137 30.5875 22.5025C30.087 23.0061 29.4271 23.3203 28.7207 23.3915C28.0142 23.4626 27.3049 23.2862 26.714 22.8925C26.1232 22.4988 25.6873 21.9121 25.4809 21.2327C25.2746 20.5533 25.3105 19.8234 25.5825 19.1675L21.45 15.0325V25.915C22.0782 26.2259 22.5808 26.7428 22.8741 27.3793C23.1673 28.0159 23.2336 28.7338 23.0618 29.4133C22.89 30.0928 22.4905 30.6929 21.9298 31.1135C21.3692 31.5342 20.6814 31.75 19.9809 31.725C19.2805 31.6999 18.6098 31.4356 18.0806 30.976C17.5514 30.5165 17.1957 29.8894 17.0728 29.1994C16.9499 28.5094 17.0672 27.798 17.4051 27.184C17.7431 26.57 18.2813 26.0903 18.93 25.825V14.8425C18.5557 14.6892 18.2155 14.4632 17.929 14.1778C17.6424 13.8923 17.4152 13.5529 17.2604 13.1792C17.1057 12.8055 17.0264 12.4049 17.0272 12.0004C17.0279 11.5959 17.1088 11.1956 17.265 10.8225L12.7325 6.28752L0.757519 18.2625C0.518273 18.5016 0.328486 18.7856 0.199001 19.0981C0.0695152 19.4106 0.00286865 19.7455 0.00286865 20.0838C0.00286865 20.422 0.0695152 20.757 0.199001 21.0695C0.328486 21.382 0.518273 21.6659 0.757519 21.905L18.2225 39.37C18.4616 39.6093 18.7456 39.799 19.0581 39.9285C19.3706 40.058 19.7055 40.1247 20.0438 40.1247C20.382 40.1247 20.717 40.058 21.0295 39.9285C21.342 39.799 21.6259 39.6093 21.865 39.37L39.2475 21.9875C39.7301 21.5042 40.0011 20.8492 40.0011 20.1663C40.0011 19.4833 39.7301 18.8283 39.2475 18.345" fill="white"/>
</g>
<defs>
<clipPath id="clip0_1_189">
<rect width="40" height="40" fill="white" transform="translate(0 0.125)"/>
</clipPath>
</defs>
</svg>
