<svg width="46" height="45" viewBox="0 0 46 45" fill="none" xmlns="http://www.w3.org/2000/svg">
<g clip-path="url(#clip0_1_105)">
<mask id="mask0_1_105" style="mask-type:luminance" maskUnits="userSpaceOnUse" x="0" y="0" width="46" height="45">
<path d="M0.5 0H45.5V45H0.5V0Z" fill="white"/>
</mask>
<g mask="url(#mask0_1_105)">
<path fill-rule="evenodd" clip-rule="evenodd" d="M23 0C10.5687 0 0.5 10.0687 0.5 22.5C0.5 32.4562 6.94062 40.8656 15.8844 43.8469C17.0094 44.0438 17.4312 43.3688 17.4312 42.7781C17.4312 42.2438 17.4031 40.4719 17.4031 38.5875C11.75 39.6281 10.2875 37.2094 9.8375 35.9437C9.58438 35.2969 8.4875 33.3 7.53125 32.7656C6.74375 32.3438 5.61875 31.3031 7.50312 31.275C9.275 31.2469 10.5406 32.9062 10.9625 33.5812C12.9875 36.9844 16.2219 36.0281 17.5156 35.4375C17.7125 33.975 18.3031 32.9906 18.95 32.4281C13.9438 31.8656 8.7125 29.925 8.7125 21.3188C8.7125 18.8719 9.58438 16.8469 11.0188 15.2719C10.7937 14.7094 10.0063 12.4031 11.2437 9.30938C11.2437 9.30938 13.1281 8.71875 17.4312 11.6156C19.2312 11.1094 21.1437 10.8562 23.0562 10.8562C24.9688 10.8562 26.8813 11.1094 28.6812 11.6156C32.9844 8.69063 34.8688 9.30938 34.8688 9.30938C36.1063 12.4031 35.3188 14.7094 35.0938 15.2719C36.5281 16.8469 37.4 18.8438 37.4 21.3188C37.4 29.9531 32.1406 31.8656 27.1344 32.4281C27.95 33.1312 28.6531 34.4812 28.6531 36.5906C28.6531 39.6 28.625 42.0187 28.625 42.7781C28.625 43.3688 29.0469 44.0719 30.1719 43.8469C34.6385 42.3389 38.5197 39.4682 41.2694 35.6388C44.019 31.8095 45.4987 27.2143 45.5 22.5C45.5 10.0687 35.4313 0 23 0Z" fill="#122029"/>
</g>
</g>
<defs>
<clipPath id="clip0_1_105">
<rect width="45" height="45" fill="white" transform="translate(0.5)"/>
</clipPath>
</defs>
</svg>
