<svg width="50" height="50" viewBox="0 0 50 50" fill="none" xmlns="http://www.w3.org/2000/svg">
<path d="M46.0938 20.6249V20.4687L40.1563 4.99994C40 4.68744 39.8438 4.37494 39.5313 4.21869C38.9063 3.90619 38.2813 3.90619 37.6563 4.37494C37.5 4.53119 37.1875 4.68744 37.1875 4.99994L33.125 17.3437H16.875L12.8125 4.99994C12.8125 4.68744 12.5 4.53119 12.3438 4.21869C11.7188 3.90619 11.0938 3.74994 10.4688 4.21869C10.1563 4.37494 10 4.53119 9.84377 4.84369L3.90627 20.3124V20.4687C2.18752 24.9999 3.59377 30.3124 7.50002 33.2812L16.5625 39.9999L21.0938 43.4374L23.75 45.4687C24.375 45.9374 25.3125 45.9374 25.9375 45.4687L28.5938 43.4374L33.125 39.9999L42.1875 33.1249C46.4063 30.4687 47.9688 25.1562 46.0938 20.6249Z" fill="#E24329"/>
<path d="M46.0938 20.625V20.4688C43.125 21.0938 40.4687 22.3437 38.125 24.0625L25 33.9063C29.5313 37.3438 33.2812 40.1563 33.2812 40.1563L42.3438 33.2812C46.4063 30.4687 47.9688 25.1562 46.0938 20.625Z" fill="#FC6D26"/>
<path d="M16.7188 40.3125L21.25 43.75L23.9063 45.7812C24.5313 46.25 25.4688 46.25 26.0938 45.7812L28.75 43.75L33.2813 40.3125C33.2813 40.3125 29.375 37.3437 25 34.0625C20.4688 37.3437 16.7188 40.3125 16.7188 40.3125Z" fill="#FCA326"/>
<path d="M11.875 24.0625C9.53127 22.3437 6.71877 21.0938 3.90627 20.4688V20.625C2.18752 25.1562 3.59377 30.4687 7.50002 33.4375L16.5625 40.1563C16.5625 40.1563 20.4688 37.1875 24.8438 33.9063L11.875 24.0625Z" fill="#FC6D26"/>
</svg>
