<svg width="18" height="18" viewBox="0 0 18 18" fill="none" xmlns="http://www.w3.org/2000/svg">
<g clip-path="url(#clip0_109_108)">
<path d="M17.8613 5.45275C17.7959 4.4301 17.5765 3.59949 16.8646 2.74391C15.4385 1.03355 12.1604 0.7488 10.6942 2.39541C10.4384 2.63766 10.1969 2.92932 9.95441 3.27782L9.40563 4.06646L8.85658 3.27782C8.61327 2.92932 8.37128 2.63739 8.11549 2.39541C6.64817 0.7488 3.37036 1.03328 1.94502 2.74391C1.23208 3.59949 1.01294 4.4301 0.947596 5.45275C0.854627 8.4931 3.06091 10.9276 3.33317 11.2843C4.8305 13.0409 6.46383 14.7018 8.12239 16.2321C8.42255 16.4948 8.6818 16.7134 8.94105 16.9301C9.09697 17.0574 9.25077 17.1862 9.40563 17.3126C9.56022 17.1859 9.71349 17.0574 9.86861 16.9301C10.1289 16.7134 10.3882 16.4948 10.6873 16.2321C12.3466 14.7018 13.9802 13.0419 15.4791 11.2843C15.7514 10.9276 17.958 8.4931 17.8642 5.45275" fill="#D13852"/>
<path d="M16.9446 4.91039C16.942 4.64828 16.9011 4.38796 16.8232 4.13769C16.7522 3.90919 16.6475 3.69254 16.5127 3.49488C15.723 2.33436 14.0023 1.91627 12.5647 2.21005C12.004 2.34499 11.4424 2.55589 11.1843 3.09139C11.0963 3.32116 11.2812 3.43166 11.5668 3.41758C12.6011 3.30203 13.7454 3.40616 14.66 3.85055C14.8879 3.96211 15.1012 4.09439 15.2961 4.24978C15.9522 4.75792 16.2356 5.54789 16.3639 6.33149C16.683 6.2672 16.8564 5.88444 16.8978 5.54391C16.9376 5.33521 16.9531 5.12266 16.9446 4.91039Z" fill="#F1A5B1"/>
</g>
<defs>
<clipPath id="clip0_109_108">
<rect width="17" height="17" fill="white" transform="translate(0.903503 0.5)"/>
</clipPath>
</defs>
</svg>
