<svg width="50" height="50" viewBox="0 0 50 50" fill="none" xmlns="http://www.w3.org/2000/svg">
<path d="M49.8758 14.5672C49.6836 11.5594 49.0383 9.11642 46.9445 6.60001C42.75 1.56955 33.1086 0.732046 28.7961 5.57501C28.0437 6.28751 27.3336 7.14533 26.6203 8.17033L25.0062 10.4899L23.3914 8.17033C22.6758 7.14533 21.964 6.28673 21.2117 5.57501C16.8961 0.732046 7.25546 1.56876 3.06327 6.60001C0.966394 9.11642 0.321862 11.5594 0.129675 14.5672C-0.143763 23.5094 6.3453 30.6695 7.14608 31.7188C11.55 36.8852 16.3539 41.7703 21.232 46.2711C22.1148 47.0438 22.8773 47.6867 23.6398 48.3242C24.0984 48.6985 24.5508 49.0774 25.0062 49.4492C25.4609 49.0766 25.9117 48.6985 26.368 48.3242C27.1336 47.6867 27.8961 47.0438 28.7758 46.2711C33.6562 41.7703 38.4609 36.8883 42.8695 31.7188C43.6703 30.6695 50.1601 23.5094 49.8844 14.5672" fill="#D13852"/>
<path d="M47.1797 12.9719C47.1721 12.201 47.0518 11.4353 46.8226 10.6992C46.6138 10.0272 46.306 9.38998 45.9094 8.80862C43.5867 5.39534 38.5258 4.16566 34.2976 5.02972C32.6484 5.42659 30.9969 6.0469 30.2375 7.6219C29.9789 8.29769 30.5226 8.62269 31.3625 8.58128C34.4047 8.24144 37.7703 8.54769 40.4601 9.85472C41.1304 10.1828 41.7578 10.5719 42.3312 11.0289C44.2609 12.5235 45.0945 14.8469 45.4719 17.1516C46.4101 16.9625 46.9203 15.8367 47.0422 14.8352C47.159 14.2214 47.2046 13.5962 47.1797 12.9719Z" fill="#F1A5B1"/>
</svg>
