<svg width="29" height="41" viewBox="0 0 29 41" fill="none" xmlns="http://www.w3.org/2000/svg">
<g clip-path="url(#clip0_1_137)">
<path d="M28.3164 8.71606L25.7412 37.5648L14.1655 40.7739L2.62184 37.5693L0.0493164 8.71606H28.3164Z" fill="#E44D26"/>
<path d="M14.1828 38.321L23.5365 35.7278L25.737 11.0752H14.1828V38.321Z" fill="#F16529"/>
<path d="M9.17676 18.1527H14.1828V14.614H5.30939L5.39404 15.5634L6.26385 25.3152H14.1828V21.7765H9.50019L9.17676 18.1527ZM9.97432 27.0846H6.42196L6.9177 32.6409L14.1666 34.6531L14.1828 34.6487V30.9669L14.1673 30.971L10.2263 29.9069L9.97432 27.0846Z" fill="#EBEBEB"/>
<path d="M2.6792 0.875H4.47754V2.65173H6.12263V0.875H7.92108V6.25539H6.12274V4.45373H4.47765V6.25539H2.67931V0.875H2.6792ZM10.2858 2.65927H8.70291V0.875H13.6685V2.65927H12.0845V6.25539H10.2862V2.65927H10.2861H10.2858ZM14.4565 0.875H16.3316L17.4851 2.76553L18.6374 0.875H20.5133V6.25539H18.7223V3.58857L17.4851 5.50159H17.454L16.216 3.58857V6.25539H14.4565V0.875ZM21.4083 0.875H23.2072V4.47699H25.7362V6.25539H21.4082V0.875H21.4083Z" fill="#F1F1F1"/>
<path d="M14.1706 25.3152H18.5282L18.1173 29.9047L14.1705 30.9699V34.6515L21.4252 32.6409L21.4783 32.043L22.31 22.7267L22.3963 21.7765H14.1706V25.3152ZM14.1706 18.1441V18.1527H22.7183L22.7893 17.3574L22.9506 15.5634L23.0351 14.614H14.1706V18.1442V18.1441Z" fill="white"/>
</g>
<defs>
<clipPath id="clip0_1_137">
<rect width="28.3657" height="40" fill="white" transform="translate(0 0.875)"/>
</clipPath>
</defs>
</svg>
