<svg width="42" height="41" viewBox="0 0 42 41" fill="none" xmlns="http://www.w3.org/2000/svg">
<g clip-path="url(#clip0_1_200)">
<path d="M34.7867 0.125H7.42671C3.67117 0.125 0.626709 3.16946 0.626709 6.925V33.261C0.626709 37.0165 3.67117 40.061 7.42671 40.061H34.7867C38.5422 40.061 41.5867 37.0165 41.5867 33.261V6.925C41.5867 3.16946 38.5422 0.125 34.7867 0.125Z" fill="#330000"/>
<path d="M20.4753 24.0914H14.1281L12.8366 28.1031C12.819 28.1762 12.7765 28.241 12.7163 28.2861C12.6561 28.3313 12.582 28.354 12.5068 28.3504H9.29195C9.10875 28.3504 9.04459 28.2496 9.09963 28.048L14.5951 12.2212C14.65 12.0564 14.7051 11.8687 14.7599 11.658C14.8319 11.2912 14.8687 10.9188 14.8699 10.5452C14.8661 10.519 14.8685 10.4924 14.8769 10.4673C14.8852 10.4423 14.8993 10.4195 14.9179 10.4008C14.9366 10.3822 14.9593 10.3681 14.9844 10.3597C15.0094 10.3514 15.0361 10.349 15.0622 10.3527H19.4311C19.5591 10.3527 19.6324 10.3986 19.651 10.4903L25.8883 28.0755C25.9433 28.2589 25.8883 28.3506 25.7235 28.3504H22.1513C22.09 28.3572 22.0282 28.3415 21.9777 28.3061C21.9271 28.2707 21.8912 28.2181 21.8766 28.1581L20.4753 24.0914ZM15.1172 20.6293H19.4587L19.3967 20.425L19.2974 20.1015L19.2265 19.8743L19.1134 19.5165L18.8729 18.7634L18.6614 18.0957L18.1121 16.3565C17.9754 15.9242 17.8442 15.4901 17.7185 15.0544L17.618 14.7008L17.5006 14.2828L17.3214 13.6348L17.2878 13.5127H17.2604C17.1229 14.1722 16.9555 14.8252 16.7587 15.4695L16.351 16.7808L16.1267 17.5053L15.9003 18.2388C15.8593 18.3712 15.8187 18.5023 15.7779 18.6317L15.6563 19.0154L15.5353 19.3901L15.415 19.7556L15.2953 20.1119C15.2556 20.2291 15.2159 20.3448 15.1764 20.4591L15.1172 20.6293ZM29.5974 13.2653C29.3171 13.2766 29.0377 13.2285 28.7773 13.1244C28.5169 13.0202 28.2814 12.8623 28.0862 12.6608C27.8915 12.4507 27.7403 12.2041 27.6413 11.9353C27.5423 11.6665 27.4973 11.3808 27.5091 11.0946C27.4991 10.8112 27.549 10.529 27.6556 10.2662C27.7621 10.0035 27.9228 9.76619 28.1273 9.56979C28.5217 9.19117 29.047 8.97929 29.5937 8.97827L29.6523 8.97891C30.3118 8.97891 30.8294 9.17571 31.2049 9.56963C31.3944 9.7743 31.5417 10.0143 31.6384 10.276C31.735 10.5377 31.7791 10.8159 31.7681 11.0946C31.7796 11.3819 31.7333 11.6687 31.6318 11.9378C31.5303 12.2069 31.3758 12.4528 31.1774 12.661C30.9771 12.8584 30.7393 13.0138 30.478 13.1179C30.2168 13.2221 29.9373 13.2729 29.6561 13.2674L29.5974 13.2653ZM27.7014 28.0755V14.9415C27.7014 14.7767 27.7743 14.6941 27.9212 14.6941H31.3011C31.4475 14.6941 31.5208 14.7765 31.5209 14.9415V28.0755C31.5209 28.2589 31.4476 28.3506 31.3011 28.3504H27.9487C27.7926 28.3504 27.7103 28.2682 27.7022 28.1037L27.7014 28.0755Z" fill="#FF9A00"/>
</g>
<defs>
<clipPath id="clip0_1_200">
<rect width="40.96" height="40" fill="white" transform="translate(0.626709 0.125)"/>
</clipPath>
</defs>
</svg>
