<svg width="31" height="41" viewBox="0 0 31 41" fill="none" xmlns="http://www.w3.org/2000/svg">
<g clip-path="url(#clip0_1_175)">
<path d="M10.2257 31.4217C10.2257 31.4217 8.69993 32.309 11.3116 32.6092C14.4757 32.9702 16.0926 32.9185 19.5795 32.2585C19.5795 32.2585 20.4962 32.8333 21.7763 33.3312C13.96 36.6812 4.08629 33.1371 10.2257 31.4217ZM9.27057 27.0502C9.27057 27.0502 7.55924 28.317 10.1729 28.5873C13.5528 28.936 16.2219 28.9645 20.8406 28.0751C20.8406 28.0751 21.4795 28.7228 22.484 29.077C13.0335 31.8405 2.50733 29.2949 9.27057 27.0502Z" fill="#5382A1"/>
<path d="M17.3226 19.6347C19.2486 21.852 16.8165 23.8474 16.8165 23.8474C16.8165 23.8474 21.7068 21.3229 19.4609 18.1615C17.3634 15.2135 15.7547 13.7485 24.463 8.69812C24.463 8.69812 10.7939 12.112 17.3226 19.6345" fill="#E76F00"/>
<path d="M27.6603 34.6551C27.6603 34.6551 28.7895 35.5854 26.4167 36.3051C21.9051 37.672 7.63848 38.0847 3.67524 36.3596C2.25062 35.7399 4.92229 34.8798 5.76264 34.6993C6.63906 34.5092 7.13998 34.5447 7.13998 34.5447C5.55559 33.4285 -3.10083 36.7362 2.74299 37.6834C18.6797 40.2679 31.7941 36.5197 27.6603 34.6551ZM10.9593 22.5208C10.9593 22.5208 3.70253 24.2445 8.38958 24.8702C10.3685 25.1352 14.3136 25.0753 17.9884 24.7673C20.9917 24.5142 24.0073 23.9754 24.0073 23.9754C24.0073 23.9754 22.9483 24.429 22.1822 24.9521C14.8129 26.8902 0.576861 25.9886 4.67524 24.0061C8.14125 22.3307 10.9594 22.5208 10.9594 22.5208M23.9773 29.7973C31.4686 25.9046 28.0049 22.1638 25.5874 22.6678C24.9948 22.791 24.7306 22.8979 24.7306 22.8979C24.7306 22.8979 24.9506 22.5534 25.3707 22.4042C30.1534 20.7227 33.8317 27.3634 23.8268 29.9935C23.8268 29.9936 23.9428 29.89 23.9773 29.7973Z" fill="#5382A1"/>
<path d="M19.461 0.54284C19.461 0.54284 23.6098 4.69313 15.5261 11.0747C9.04391 16.1941 14.048 19.1129 15.5234 22.4478C11.7396 19.0339 8.96275 16.0286 10.8258 13.2316C13.56 9.12561 21.1349 7.13498 19.461 0.542725" fill="#E76F00"/>
<path d="M11.6955 40.3457C18.8861 40.806 29.9281 40.0903 30.1896 36.6879C30.1896 36.6879 29.687 37.9778 24.247 39.0021C18.1096 40.157 10.5401 40.0222 6.05054 39.282C6.05065 39.282 6.96961 40.0427 11.6956 40.3457" fill="#5382A1"/>
</g>
<defs>
<clipPath id="clip0_1_175">
<rect width="29.5954" height="40" fill="white" transform="translate(0.681885 0.5)"/>
</clipPath>
</defs>
</svg>
