<svg width="41" height="41" viewBox="0 0 41 41" fill="none" xmlns="http://www.w3.org/2000/svg">
<path d="M2.5647 3.375H37.5647V38.375H2.5647V3.375Z" fill="#F5DE19"/>
<path d="M26.0759 30.7188C26.3741 31.3245 26.8374 31.8336 27.4125 32.1875C27.9875 32.5414 28.6508 32.7255 29.3259 32.7188C30.6884 32.7188 31.5597 32.0375 31.5597 31.0938C31.5597 29.9688 30.6647 29.5663 29.1647 28.91L28.3422 28.5575C25.9672 27.5463 24.3922 26.28 24.3922 23.6025C24.3922 21.1363 26.2672 19.2575 29.2084 19.2575C30.1605 19.1887 31.1118 19.4018 31.9437 19.8702C32.7755 20.3386 33.451 21.0415 33.8859 21.8913L31.3147 23.535C31.1472 23.1137 30.8556 22.7532 30.4785 22.5013C30.1015 22.2495 29.6568 22.1183 29.2034 22.125C29.0056 22.1052 28.8059 22.1268 28.6169 22.1885C28.4279 22.2501 28.2538 22.3505 28.1058 22.4831C27.9577 22.6158 27.8389 22.7778 27.7569 22.9589C27.675 23.14 27.6316 23.3362 27.6297 23.535C27.6297 24.5213 28.2409 24.9213 29.6522 25.535L30.4747 25.8875C33.2697 27.0863 34.8497 28.3075 34.8497 31.0538C34.8497 34.015 32.5234 35.6375 29.3997 35.6375C28.1825 35.715 26.969 35.4387 25.9054 34.8418C24.8419 34.245 23.9738 33.3531 23.4059 32.2738L26.0759 30.7188ZM14.4572 31.0038C14.9734 31.92 15.4434 32.695 16.5734 32.695C17.6534 32.695 18.3359 32.2725 18.3359 30.6287V19.445H21.6247V30.6725C21.6247 34.0775 19.6247 35.6275 16.7134 35.6275C15.6844 35.6838 14.6624 35.4273 13.7818 34.8919C12.9012 34.3564 12.2032 33.567 11.7797 32.6275L14.4572 31.0038Z" fill="#222222"/>
</svg>
