<svg width="46" height="45" viewBox="0 0 46 45" fill="none" xmlns="http://www.w3.org/2000/svg">
<path fill-rule="evenodd" clip-rule="evenodd" d="M2.375 5.32125C2.375 4.40725 2.73809 3.53069 3.38438 2.88439C4.03068 2.23809 4.90725 1.875 5.82125 1.875H40.175C40.628 1.87426 41.0766 1.96287 41.4953 2.13575C41.9139 2.30864 42.2944 2.5624 42.6148 2.88251C42.9353 3.20262 43.1895 3.5828 43.3628 4.00127C43.5362 4.41975 43.6252 4.8683 43.625 5.32125V39.675C43.6255 40.128 43.5367 40.5767 43.3636 40.9954C43.1905 41.4141 42.9365 41.7945 42.6163 42.115C42.296 42.4354 41.9157 42.6895 41.4971 42.8629C41.0786 43.0362 40.6299 43.1253 40.1769 43.125H5.82125C5.36852 43.125 4.92023 43.0358 4.50199 42.8625C4.08375 42.6892 3.70376 42.4352 3.38372 42.115C3.06368 41.7947 2.80987 41.4146 2.63679 40.9963C2.46371 40.5779 2.37475 40.1296 2.375 39.6769V5.32125ZM18.7025 17.6025H24.2881V20.4075C25.0944 18.795 27.1569 17.3438 30.2563 17.3438C36.1981 17.3438 37.6063 20.5556 37.6063 26.4488V37.365H31.5931V27.7913C31.5931 24.435 30.7869 22.5413 28.7394 22.5413C25.8988 22.5413 24.7175 24.5831 24.7175 27.7913V37.365H18.7025V17.6025ZM8.39 37.1081H14.405V17.3438H8.39V37.1063V37.1081ZM15.2656 10.8975C15.277 11.4125 15.1853 11.9246 14.9961 12.4037C14.8068 12.8828 14.5238 13.3193 14.1636 13.6876C13.8033 14.0558 13.3732 14.3484 12.8984 14.5481C12.4235 14.7479 11.9136 14.8508 11.3984 14.8508C10.8833 14.8508 10.3734 14.7479 9.89852 14.5481C9.42369 14.3484 8.99354 14.0558 8.63332 13.6876C8.27309 13.3193 7.99005 12.8828 7.8008 12.4037C7.61155 11.9246 7.51991 11.4125 7.53125 10.8975C7.55351 9.88661 7.97072 8.92461 8.69354 8.21754C9.41635 7.51047 10.3873 7.11454 11.3984 7.11454C12.4096 7.11454 13.3805 7.51047 14.1033 8.21754C14.8262 8.92461 15.2434 9.88661 15.2656 10.8975Z" fill="#122029"/>
</svg>
