<svg width="50" height="50" viewBox="0 0 50 50" fill="none" xmlns="http://www.w3.org/2000/svg">
<g clip-path="url(#clip0_602_781)">
<path d="M45.8334 15.698V35.4167C45.8334 37.0109 45.2243 38.5449 44.1307 39.7048C43.037 40.8647 41.5415 41.5628 39.95 41.6563L39.5834 41.6667H10.4167C8.8225 41.6668 7.28853 41.0577 6.12864 39.9641C4.96876 38.8704 4.27063 37.3749 4.1771 35.7834L4.16669 35.4167V15.698L23.8438 28.8167L24.0854 28.9542C24.3702 29.0934 24.683 29.1657 25 29.1657C25.317 29.1657 25.6298 29.0934 25.9146 28.9542L26.1563 28.8167L45.8334 15.698Z" fill="#122029"/>
<path d="M39.5833 8.33325C41.8333 8.33325 43.8062 9.52075 44.9062 11.3062L25 24.577L5.09375 11.3062C5.6161 10.4578 6.33378 9.74659 7.18689 9.23197C8.04 8.71734 9.00382 8.4142 9.99792 8.34784L10.4167 8.33325H39.5833Z" fill="#122029"/>
</g>
<defs>
<clipPath id="clip0_602_781">
<rect width="50" height="50" fill="white"/>
</clipPath>
</defs>
</svg>
