<svg width="500" height="500" viewBox="0 0 500 500" fill="none" xmlns="http://www.w3.org/2000/svg">
<g clip-path="url(#clip0_309_1142)">
<mask id="path-1-outside-1_309_1142" maskUnits="userSpaceOnUse" x="27.8889" y="-1" width="444" height="502" fill="black">
<rect fill="white" x="27.8889" y="-1" width="444" height="502"/>
<path d="M208.588 499.418C148.429 494.02 93.4582 468.389 51.7356 426.28C40.4344 414.876 40.4344 414.876 39.4195 389.453C38.4046 364.031 38.4046 364.031 49.5145 305.451C55.6249 273.231 60.9176 246.529 61.2762 246.109C61.6347 245.691 74.3598 278.144 89.554 318.229C117.18 391.111 117.18 391.111 136.796 391.111C156.412 391.111 156.412 391.111 174.763 342.753C184.856 316.158 197.272 283.34 202.354 269.824C207.436 256.309 211.843 245.244 212.148 245.238C212.453 245.229 218.306 274.442 225.155 310.153C237.607 375.084 237.607 375.084 236.911 389.176C236.215 403.269 236.215 403.269 233.051 403.269C231.31 403.269 229.886 403.056 229.886 402.796C229.886 402.113 208.839 293.473 208.492 292.364C208.332 291.853 198.701 316.476 187.088 347.076C165.975 402.716 165.975 402.716 137.042 403.011C108.109 403.304 108.109 403.304 105.908 397.484C85.5789 343.733 66.7467 294.451 66.0882 293.278C65.62 292.444 60.778 314.778 55.106 343.936C45.5737 392.936 45.0663 396.251 46.702 398.847C50.4949 404.869 77.0205 430.022 88.4089 438.4C118.533 460.556 152.486 475.127 189.975 481.987C207.48 485.191 247.919 485.484 265.46 482.533C307.973 475.382 345.822 458.553 378.531 432.256C388.204 424.478 410.493 401.7 415.989 393.978C419.722 388.733 419.722 388.731 414.036 391.604C392.36 402.556 361.987 406.802 334.693 402.702C318.149 400.216 308.349 397.187 293.633 390.016C277.58 382.193 264.847 372.424 255.982 361.131C250.138 353.684 243.19 341.816 243.19 339.282C243.19 338.264 254.102 334.127 254.736 334.904C254.911 335.118 256.711 338.436 258.74 342.276C265.544 355.169 281.822 370.004 298.067 378.12C326.664 392.407 366.089 395.278 395.627 385.224C424.989 375.233 446.467 355.469 454.6 330.96C457.156 323.26 457.571 320.129 457.62 308.213C457.669 296.958 457.227 292.956 455.238 286.616C447.724 262.651 423.907 242.778 389.06 231.4C378.618 227.989 372.6 226.664 341.304 220.882C319.487 216.853 311.609 210.52 311.609 197.013C311.609 182.303 328.38 171.496 352.944 170.378C366.738 169.751 377.242 171.624 387.578 176.557C393.938 179.591 403.942 187.694 403.942 189.81C403.942 190.296 401.322 191.572 398.122 192.644C392.302 194.595 392.302 194.595 385.696 190.602C376.733 185.185 373.189 184.245 359.362 183.615C349.447 183.164 346.247 183.453 339.962 185.366C331.824 187.844 324.12 193.293 324.12 196.57C324.12 202.905 329.209 205.618 346.989 208.762C380.753 214.733 395.929 218.895 413.791 227.084C426.331 232.833 439.218 241.942 448.476 251.604C461.653 265.356 467.96 278.518 470.504 297.58C472.067 309.287 470.549 324.369 466.651 335.853C463.529 345.058 448.091 373.918 438.831 387.864C399.458 447.167 335.451 487.538 264.809 497.62C249.418 499.818 222.607 500.673 208.588 499.418ZM340.833 333.056C330.253 331.147 317.851 325.049 312.471 319.111C308.313 314.522 308.313 314.522 313.722 312.476C320.684 309.838 321.333 309.88 325.742 313.231C333.147 318.862 341.08 320.853 356.271 320.891C369.558 320.924 370.433 320.782 377.52 317.433C385.02 313.891 389.184 309.584 388.027 306.571C386.484 302.569 373.638 297.107 359.424 294.411C339.542 290.642 323.502 286.956 322.153 285.849C321.376 285.211 320.451 284.976 320.1 285.327C319.171 286.251 301.6 279.882 292.524 275.331C280.66 269.382 272.231 263.324 263.611 254.556C242.57 233.144 235.825 199.945 246.012 167.925C249.696 156.351 255.524 146.977 265.787 136.13C300.153 99.7993 360.189 89.4 412.033 110.796C417.353 112.992 421.982 114.788 422.318 114.788C424.051 114.788 407.322 94.9758 396.182 83.8331C360.029 47.6782 314.404 24.8198 262.591 16.9026C245.98 14.3643 212.596 14.3722 196.073 16.9193C134.793 26.3624 83.0158 56.0673 44.3032 103.99C40.0809 109.216 40.0809 109.216 62.594 109.516C85.1071 109.816 85.1071 109.815 110.657 176.945C124.709 213.866 136.456 244.08 136.761 244.084C137.066 244.089 148.83 213.882 162.904 176.955C188.492 109.816 188.492 109.816 217.504 109.521C246.516 109.226 246.516 109.226 246.516 115.324C246.516 121.421 246.516 121.421 222.276 121.421C195.593 121.421 203.335 107.504 145.269 259.836C140.929 271.22 137.03 280.173 136.603 279.729C136.176 279.287 122.369 243.611 105.92 200.449C76.0131 121.974 76.0131 121.974 52.6938 121.676C29.3745 121.378 29.3745 121.378 29.0218 110.634C28.6691 99.8916 28.6691 99.8913 33.6262 93.248C41.1548 83.158 65.0629 59.8551 76.8947 51.0749C114.126 23.4458 153.75 7.45829 199.953 1.42214C218.461 -0.995818 251.418 -0.245105 270.351 3.02574C314.847 10.7126 353.076 27.9093 387.962 55.9333C413.004 76.0491 437.973 106.523 451.609 133.614C453.589 137.546 456.842 143.002 458.838 145.737C462.698 151.03 469.351 163.475 469.351 165.404C469.351 166.488 458.456 170.732 457.833 169.89C457.676 169.676 456.149 166.766 454.438 163.422C439.964 135.125 403.658 115.094 362.922 112.93C310.351 110.138 264.804 139.146 255.816 181.146C254.536 187.125 254.218 192.591 254.66 201.002C255.651 219.913 260.638 232.36 272.131 244.609C288.4 261.947 313.38 272.873 353.238 280.08C387.507 286.276 400.616 293.849 400.616 307.444C400.616 314.027 399.451 316.867 394.918 321.329C389.671 326.493 380.284 330.958 370.38 332.998C360.34 335.064 352.053 335.08 340.833 333.056Z"/>
</mask>
<path d="M208.588 499.418C148.429 494.02 93.4582 468.389 51.7356 426.28C40.4344 414.876 40.4344 414.876 39.4195 389.453C38.4046 364.031 38.4046 364.031 49.5145 305.451C55.6249 273.231 60.9176 246.529 61.2762 246.109C61.6347 245.691 74.3598 278.144 89.554 318.229C117.18 391.111 117.18 391.111 136.796 391.111C156.412 391.111 156.412 391.111 174.763 342.753C184.856 316.158 197.272 283.34 202.354 269.824C207.436 256.309 211.843 245.244 212.148 245.238C212.453 245.229 218.306 274.442 225.155 310.153C237.607 375.084 237.607 375.084 236.911 389.176C236.215 403.269 236.215 403.269 233.051 403.269C231.31 403.269 229.886 403.056 229.886 402.796C229.886 402.113 208.839 293.473 208.492 292.364C208.332 291.853 198.701 316.476 187.088 347.076C165.975 402.716 165.975 402.716 137.042 403.011C108.109 403.304 108.109 403.304 105.908 397.484C85.5789 343.733 66.7467 294.451 66.0882 293.278C65.62 292.444 60.778 314.778 55.106 343.936C45.5737 392.936 45.0663 396.251 46.702 398.847C50.4949 404.869 77.0205 430.022 88.4089 438.4C118.533 460.556 152.486 475.127 189.975 481.987C207.48 485.191 247.919 485.484 265.46 482.533C307.973 475.382 345.822 458.553 378.531 432.256C388.204 424.478 410.493 401.7 415.989 393.978C419.722 388.733 419.722 388.731 414.036 391.604C392.36 402.556 361.987 406.802 334.693 402.702C318.149 400.216 308.349 397.187 293.633 390.016C277.58 382.193 264.847 372.424 255.982 361.131C250.138 353.684 243.19 341.816 243.19 339.282C243.19 338.264 254.102 334.127 254.736 334.904C254.911 335.118 256.711 338.436 258.74 342.276C265.544 355.169 281.822 370.004 298.067 378.12C326.664 392.407 366.089 395.278 395.627 385.224C424.989 375.233 446.467 355.469 454.6 330.96C457.156 323.26 457.571 320.129 457.62 308.213C457.669 296.958 457.227 292.956 455.238 286.616C447.724 262.651 423.907 242.778 389.06 231.4C378.618 227.989 372.6 226.664 341.304 220.882C319.487 216.853 311.609 210.52 311.609 197.013C311.609 182.303 328.38 171.496 352.944 170.378C366.738 169.751 377.242 171.624 387.578 176.557C393.938 179.591 403.942 187.694 403.942 189.81C403.942 190.296 401.322 191.572 398.122 192.644C392.302 194.595 392.302 194.595 385.696 190.602C376.733 185.185 373.189 184.245 359.362 183.615C349.447 183.164 346.247 183.453 339.962 185.366C331.824 187.844 324.12 193.293 324.12 196.57C324.12 202.905 329.209 205.618 346.989 208.762C380.753 214.733 395.929 218.895 413.791 227.084C426.331 232.833 439.218 241.942 448.476 251.604C461.653 265.356 467.96 278.518 470.504 297.58C472.067 309.287 470.549 324.369 466.651 335.853C463.529 345.058 448.091 373.918 438.831 387.864C399.458 447.167 335.451 487.538 264.809 497.62C249.418 499.818 222.607 500.673 208.588 499.418ZM340.833 333.056C330.253 331.147 317.851 325.049 312.471 319.111C308.313 314.522 308.313 314.522 313.722 312.476C320.684 309.838 321.333 309.88 325.742 313.231C333.147 318.862 341.08 320.853 356.271 320.891C369.558 320.924 370.433 320.782 377.52 317.433C385.02 313.891 389.184 309.584 388.027 306.571C386.484 302.569 373.638 297.107 359.424 294.411C339.542 290.642 323.502 286.956 322.153 285.849C321.376 285.211 320.451 284.976 320.1 285.327C319.171 286.251 301.6 279.882 292.524 275.331C280.66 269.382 272.231 263.324 263.611 254.556C242.57 233.144 235.825 199.945 246.012 167.925C249.696 156.351 255.524 146.977 265.787 136.13C300.153 99.7993 360.189 89.4 412.033 110.796C417.353 112.992 421.982 114.788 422.318 114.788C424.051 114.788 407.322 94.9758 396.182 83.8331C360.029 47.6782 314.404 24.8198 262.591 16.9026C245.98 14.3643 212.596 14.3722 196.073 16.9193C134.793 26.3624 83.0158 56.0673 44.3032 103.99C40.0809 109.216 40.0809 109.216 62.594 109.516C85.1071 109.816 85.1071 109.815 110.657 176.945C124.709 213.866 136.456 244.08 136.761 244.084C137.066 244.089 148.83 213.882 162.904 176.955C188.492 109.816 188.492 109.816 217.504 109.521C246.516 109.226 246.516 109.226 246.516 115.324C246.516 121.421 246.516 121.421 222.276 121.421C195.593 121.421 203.335 107.504 145.269 259.836C140.929 271.22 137.03 280.173 136.603 279.729C136.176 279.287 122.369 243.611 105.92 200.449C76.0131 121.974 76.0131 121.974 52.6938 121.676C29.3745 121.378 29.3745 121.378 29.0218 110.634C28.6691 99.8916 28.6691 99.8913 33.6262 93.248C41.1548 83.158 65.0629 59.8551 76.8947 51.0749C114.126 23.4458 153.75 7.45829 199.953 1.42214C218.461 -0.995818 251.418 -0.245105 270.351 3.02574C314.847 10.7126 353.076 27.9093 387.962 55.9333C413.004 76.0491 437.973 106.523 451.609 133.614C453.589 137.546 456.842 143.002 458.838 145.737C462.698 151.03 469.351 163.475 469.351 165.404C469.351 166.488 458.456 170.732 457.833 169.89C457.676 169.676 456.149 166.766 454.438 163.422C439.964 135.125 403.658 115.094 362.922 112.93C310.351 110.138 264.804 139.146 255.816 181.146C254.536 187.125 254.218 192.591 254.66 201.002C255.651 219.913 260.638 232.36 272.131 244.609C288.4 261.947 313.38 272.873 353.238 280.08C387.507 286.276 400.616 293.849 400.616 307.444C400.616 314.027 399.451 316.867 394.918 321.329C389.671 326.493 380.284 330.958 370.38 332.998C360.34 335.064 352.053 335.08 340.833 333.056Z" fill="#E0FF00"/>
<path d="M208.588 499.418C148.429 494.02 93.4582 468.389 51.7356 426.28C40.4344 414.876 40.4344 414.876 39.4195 389.453C38.4046 364.031 38.4046 364.031 49.5145 305.451C55.6249 273.231 60.9176 246.529 61.2762 246.109C61.6347 245.691 74.3598 278.144 89.554 318.229C117.18 391.111 117.18 391.111 136.796 391.111C156.412 391.111 156.412 391.111 174.763 342.753C184.856 316.158 197.272 283.34 202.354 269.824C207.436 256.309 211.843 245.244 212.148 245.238C212.453 245.229 218.306 274.442 225.155 310.153C237.607 375.084 237.607 375.084 236.911 389.176C236.215 403.269 236.215 403.269 233.051 403.269C231.31 403.269 229.886 403.056 229.886 402.796C229.886 402.113 208.839 293.473 208.492 292.364C208.332 291.853 198.701 316.476 187.088 347.076C165.975 402.716 165.975 402.716 137.042 403.011C108.109 403.304 108.109 403.304 105.908 397.484C85.5789 343.733 66.7467 294.451 66.0882 293.278C65.62 292.444 60.778 314.778 55.106 343.936C45.5737 392.936 45.0663 396.251 46.702 398.847C50.4949 404.869 77.0205 430.022 88.4089 438.4C118.533 460.556 152.486 475.127 189.975 481.987C207.48 485.191 247.919 485.484 265.46 482.533C307.973 475.382 345.822 458.553 378.531 432.256C388.204 424.478 410.493 401.7 415.989 393.978C419.722 388.733 419.722 388.731 414.036 391.604C392.36 402.556 361.987 406.802 334.693 402.702C318.149 400.216 308.349 397.187 293.633 390.016C277.58 382.193 264.847 372.424 255.982 361.131C250.138 353.684 243.19 341.816 243.19 339.282C243.19 338.264 254.102 334.127 254.736 334.904C254.911 335.118 256.711 338.436 258.74 342.276C265.544 355.169 281.822 370.004 298.067 378.12C326.664 392.407 366.089 395.278 395.627 385.224C424.989 375.233 446.467 355.469 454.6 330.96C457.156 323.26 457.571 320.129 457.62 308.213C457.669 296.958 457.227 292.956 455.238 286.616C447.724 262.651 423.907 242.778 389.06 231.4C378.618 227.989 372.6 226.664 341.304 220.882C319.487 216.853 311.609 210.52 311.609 197.013C311.609 182.303 328.38 171.496 352.944 170.378C366.738 169.751 377.242 171.624 387.578 176.557C393.938 179.591 403.942 187.694 403.942 189.81C403.942 190.296 401.322 191.572 398.122 192.644C392.302 194.595 392.302 194.595 385.696 190.602C376.733 185.185 373.189 184.245 359.362 183.615C349.447 183.164 346.247 183.453 339.962 185.366C331.824 187.844 324.12 193.293 324.12 196.57C324.12 202.905 329.209 205.618 346.989 208.762C380.753 214.733 395.929 218.895 413.791 227.084C426.331 232.833 439.218 241.942 448.476 251.604C461.653 265.356 467.96 278.518 470.504 297.58C472.067 309.287 470.549 324.369 466.651 335.853C463.529 345.058 448.091 373.918 438.831 387.864C399.458 447.167 335.451 487.538 264.809 497.62C249.418 499.818 222.607 500.673 208.588 499.418ZM340.833 333.056C330.253 331.147 317.851 325.049 312.471 319.111C308.313 314.522 308.313 314.522 313.722 312.476C320.684 309.838 321.333 309.88 325.742 313.231C333.147 318.862 341.08 320.853 356.271 320.891C369.558 320.924 370.433 320.782 377.52 317.433C385.02 313.891 389.184 309.584 388.027 306.571C386.484 302.569 373.638 297.107 359.424 294.411C339.542 290.642 323.502 286.956 322.153 285.849C321.376 285.211 320.451 284.976 320.1 285.327C319.171 286.251 301.6 279.882 292.524 275.331C280.66 269.382 272.231 263.324 263.611 254.556C242.57 233.144 235.825 199.945 246.012 167.925C249.696 156.351 255.524 146.977 265.787 136.13C300.153 99.7993 360.189 89.4 412.033 110.796C417.353 112.992 421.982 114.788 422.318 114.788C424.051 114.788 407.322 94.9758 396.182 83.8331C360.029 47.6782 314.404 24.8198 262.591 16.9026C245.98 14.3643 212.596 14.3722 196.073 16.9193C134.793 26.3624 83.0158 56.0673 44.3032 103.99C40.0809 109.216 40.0809 109.216 62.594 109.516C85.1071 109.816 85.1071 109.815 110.657 176.945C124.709 213.866 136.456 244.08 136.761 244.084C137.066 244.089 148.83 213.882 162.904 176.955C188.492 109.816 188.492 109.816 217.504 109.521C246.516 109.226 246.516 109.226 246.516 115.324C246.516 121.421 246.516 121.421 222.276 121.421C195.593 121.421 203.335 107.504 145.269 259.836C140.929 271.22 137.03 280.173 136.603 279.729C136.176 279.287 122.369 243.611 105.92 200.449C76.0131 121.974 76.0131 121.974 52.6938 121.676C29.3745 121.378 29.3745 121.378 29.0218 110.634C28.6691 99.8916 28.6691 99.8913 33.6262 93.248C41.1548 83.158 65.0629 59.8551 76.8947 51.0749C114.126 23.4458 153.75 7.45829 199.953 1.42214C218.461 -0.995818 251.418 -0.245105 270.351 3.02574C314.847 10.7126 353.076 27.9093 387.962 55.9333C413.004 76.0491 437.973 106.523 451.609 133.614C453.589 137.546 456.842 143.002 458.838 145.737C462.698 151.03 469.351 163.475 469.351 165.404C469.351 166.488 458.456 170.732 457.833 169.89C457.676 169.676 456.149 166.766 454.438 163.422C439.964 135.125 403.658 115.094 362.922 112.93C310.351 110.138 264.804 139.146 255.816 181.146C254.536 187.125 254.218 192.591 254.66 201.002C255.651 219.913 260.638 232.36 272.131 244.609C288.4 261.947 313.38 272.873 353.238 280.08C387.507 286.276 400.616 293.849 400.616 307.444C400.616 314.027 399.451 316.867 394.918 321.329C389.671 326.493 380.284 330.958 370.38 332.998C360.34 335.064 352.053 335.08 340.833 333.056Z" stroke="#E0FF00" mask="url(#path-1-outside-1_309_1142)"/>
</g>
<defs>
<clipPath id="clip0_309_1142">
<rect width="500" height="500" fill="white"/>
</clipPath>
</defs>
</svg>
