<svg width="60" height="40" viewBox="0 0 60 40" fill="none" xmlns="http://www.w3.org/2000/svg">
<path d="M0 38.45C1.46667 34.0167 2.86667 29.6667 4.2 25.4C4.76667 23.6 5.35 21.7167 5.95 19.75C6.55 17.7833 7.15 15.8333 7.75 13.9C8.35 11.9667 8.9 10.1 9.4 8.3C9.93333 6.5 10.4 4.83333 10.8 3.3C12.6333 3.3 14.3667 3.2 16 3C17.6333 2.8 19.4 2.61667 21.3 2.45C21.2 3.18333 21.0833 4.01667 20.95 4.95C20.85 5.85 20.7167 6.8 20.55 7.8C20.4167 8.8 20.2667 9.83333 20.1 10.9C19.9333 11.9667 19.7333 13.3333 19.5 15C19.2667 16.6667 18.95 18.75 18.55 21.25H19.2C20.1667 18.7167 20.9667 16.6167 21.6 14.95C22.2333 13.25 22.75 11.8667 23.15 10.8C23.55 9.73334 23.95 8.7 24.35 7.7C24.7833 6.66667 25.1833 5.7 25.55 4.8C25.95 3.86667 26.3167 3.05 26.65 2.35C27.4833 2.28333 28.2667 2.2 29 2.1C29.7333 2 30.4667 1.9 31.2 1.8C31.9333 1.66667 32.6667 1.55 33.4 1.45C34.1667 1.31667 35 1.16667 35.9 1C35.5667 2.93333 35.25 4.91667 34.95 6.95C34.65 8.98333 34.3833 11.0167 34.15 13.05C33.9167 15.05 33.6833 17.0333 33.45 19C33.25 20.9667 33.0667 22.8333 32.9 24.6C32.5 28.7333 32.15 32.7667 31.85 36.7L23.15 38.25C23.15 38.0833 23.1667 37.6333 23.2 36.9C23.2667 36.1667 23.3333 35.2667 23.4 34.2C23.5 33.1333 23.6167 31.95 23.75 30.65C23.9167 29.35 24.0667 28.05 24.2 26.75C24.3667 25.45 24.5333 24.2 24.7 23C24.8667 21.7667 25.0333 20.7167 25.2 19.85H24.75C24.2833 21.25 23.7667 22.7333 23.2 24.3C22.6333 25.8333 22.05 27.4 21.45 29C20.8833 30.6 20.3167 32.1667 19.75 33.7C19.1833 35.2333 18.6833 36.7 18.25 38.1C17.0833 38.1333 16.0833 38.1833 15.25 38.25C14.4167 38.2833 13.45 38.3333 12.35 38.4L13.95 19.85H13.2C13.1333 20.2833 12.9667 21.0167 12.7 22.05C12.4333 23.05 12.1167 24.2167 11.75 25.55C11.4167 26.85 11.05 28.2167 10.65 29.65C10.25 31.05 9.86667 32.3667 9.5 33.6C9.16667 34.8 8.88333 35.8 8.65 36.6C8.41667 37.3667 8.28333 37.8 8.25 37.9L0 38.45Z" fill="#E0FF00"/>
<path d="M56.107 26.4C56.107 28.2667 55.7404 29.9667 55.007 31.5C54.307 33 53.3404 34.3 52.107 35.4C50.907 36.5 49.4737 37.35 47.807 37.95C46.1737 38.55 44.407 38.85 42.507 38.85C41.1737 38.85 39.8404 38.5 38.507 37.8C37.1737 37.0667 35.8904 35.9167 34.657 34.35L38.357 27.1C38.5904 27.5333 38.9404 27.9833 39.407 28.45C39.8737 28.8833 40.3904 29.2667 40.957 29.6C41.557 29.9333 42.1404 30.2167 42.707 30.45C43.307 30.65 43.8404 30.75 44.307 30.75C44.707 30.75 45.1237 30.6833 45.557 30.55C45.9904 30.4167 46.3904 30.2167 46.757 29.95C47.1237 29.6833 47.407 29.3833 47.607 29.05C47.8404 28.6833 47.957 28.2667 47.957 27.8C47.957 27 47.6904 26.2667 47.157 25.6C46.657 24.9 46.0237 24.25 45.257 23.65C44.4904 23.0167 43.657 22.3833 42.757 21.75C41.857 21.1167 41.0237 20.45 40.257 19.75C39.5237 19.05 38.8904 18.2667 38.357 17.4C37.8237 16.5333 37.557 15.5667 37.557 14.5C37.557 12.7667 38.0737 11.15 39.107 9.65C40.1404 8.15 41.4237 6.86667 42.957 5.8C44.5237 4.7 46.2237 3.83333 48.057 3.2C49.8904 2.56667 51.6237 2.25 53.257 2.25C54.157 2.25 55.007 2.36667 55.807 2.6C56.607 2.8 57.2904 3.15 57.857 3.65C58.457 4.11667 58.9237 4.71667 59.257 5.45C59.6237 6.18333 59.807 7.1 59.807 8.2C59.807 8.66667 59.757 9.13334 59.657 9.6C59.5904 10.0667 59.5237 10.5667 59.457 11.1L52.207 13.2C52.2737 12.9333 52.3237 12.6667 52.357 12.4C52.4237 12.1333 52.457 11.8667 52.457 11.6C52.457 10.6 52.2737 9.88334 51.907 9.45C51.5737 8.98334 51.1237 8.75 50.557 8.75C50.2904 8.75 49.957 8.85 49.557 9.05C49.1904 9.25 48.807 9.51667 48.407 9.85C48.0404 10.15 47.7237 10.5167 47.457 10.95C47.1904 11.3833 47.057 11.85 47.057 12.35C47.057 13.15 47.2737 13.8167 47.707 14.35C48.1737 14.8833 48.7404 15.3833 49.407 15.85C50.0737 16.3167 50.7904 16.8 51.557 17.3C52.357 17.7667 53.0904 18.3833 53.757 19.15C54.4237 19.9167 54.9737 20.8833 55.407 22.05C55.8737 23.1833 56.107 24.6333 56.107 26.4Z" fill="#E0FF00"/>
</svg>
