<svg width="59" height="41" viewBox="0 0 59 41" fill="none" xmlns="http://www.w3.org/2000/svg">
<g clip-path="url(#clip0_1_171)">
<path d="M17.4567 26.8951L19.2401 32.6815C19.6408 33.9953 19.8079 34.9125 19.741 35.4352C20.7163 32.823 21.3978 29.9762 21.7856 26.8951H23.93C23.0079 31.9112 21.7917 35.5564 20.2822 37.8303C19.106 39.5826 17.8175 40.4587 16.4144 40.4587C16.0403 40.4587 15.5791 40.3457 15.0319 40.1213V38.9121C15.2993 38.9513 15.613 38.9723 15.9738 38.9723C16.6283 38.9723 17.1559 38.7909 17.5572 38.4288C18.0378 37.9877 18.2784 37.4919 18.2784 36.9423C18.2784 36.567 18.0908 35.797 17.7172 34.632L15.2324 26.8951H17.4566H17.4567ZM3.80779 23.3385L7.07427 33.3048H7.09444L10.381 23.3385H13.0661C13.6541 28.2811 14.0014 32.8034 14.108 36.9025H11.8441C11.7645 33.0706 11.5438 29.4674 11.183 26.0922H11.1633L7.71599 36.9025H5.99198L2.5655 26.0922H2.54533C2.29112 29.3337 2.13112 32.9369 2.06441 36.9025H0C0.13341 32.0796 0.467278 27.5587 1.0016 23.3385H3.80791H3.80779Z" fill="#00758F"/>
<path d="M40.4009 23.1372C43.9146 23.1372 45.6715 25.382 45.6715 29.8695C45.6715 32.308 45.1432 34.1499 44.0875 35.3943C43.8972 35.6217 43.6869 35.8181 43.4655 36.0001L45.952 37.2296L45.9496 37.2295L45.0667 38.754L41.8286 36.8647C41.2918 37.0236 40.7012 37.103 40.0577 37.103C38.3324 37.103 37.0437 36.6002 36.1917 35.5959C35.2564 34.4848 34.789 32.7357 34.789 30.3515C34.789 27.9268 35.3165 26.0918 36.3725 24.8459C37.3344 23.7061 38.6774 23.1371 40.4009 23.1371V23.1372ZM29.6411 23.1569C30.8969 23.1569 32.0388 23.493 33.0673 24.1626L32.5449 25.3268C31.6648 24.9527 30.797 24.7648 29.9413 24.7648C29.247 24.7648 28.712 24.9319 28.3391 25.2682C27.964 25.6015 27.7321 26.0304 27.7321 26.5532C27.7321 27.3567 28.3044 28.0534 29.3613 28.6421C29.7075 28.8313 30.0526 29.0228 30.3964 29.2164L30.4752 29.2608L30.5148 29.283L30.5937 29.3273L30.6331 29.3496L30.712 29.394C31.512 29.8451 32.2648 30.2755 32.2648 30.2755C33.3215 31.0257 33.8483 31.8255 33.8483 33.1427C33.8483 34.2931 33.4267 35.2374 32.5864 35.9763C31.7455 36.7119 30.6157 37.0807 29.2009 37.0807C27.8777 37.0807 26.5953 36.6562 25.3531 35.8142L25.9342 34.6491C27.0032 35.1849 27.9706 35.4525 28.8392 35.4525C29.6539 35.4525 30.2916 35.2706 30.7529 34.9114C31.2133 34.5496 31.4892 34.0449 31.4892 33.405C31.4892 32.5997 30.929 31.9112 29.9012 31.3336C29.5795 31.1559 29.2588 30.9765 28.9391 30.7953L28.8603 30.7507C28.7157 30.669 28.57 30.5863 28.4273 30.5052L28.3499 30.4612C27.656 30.0665 27.056 29.7216 27.056 29.7216C26.0286 28.9701 25.5134 28.1638 25.5134 26.8352C25.5134 25.7364 25.8976 24.8483 26.6648 24.1726C27.4338 23.4955 28.426 23.1569 29.6411 23.1569ZM49.8009 23.3385V35.2339H54.0689V36.9025H47.6364V23.3385H49.8009ZM56.4405 35.2391V35.521H55.9713V36.901H55.6125V35.521H55.1251V35.2391H56.4406H56.4405ZM57.307 35.2391L57.7575 36.3719L58.1714 35.2391H58.6799V36.901H58.3418V35.6362L57.8707 36.901H57.627L57.1551 35.6362H57.137V36.901H56.8171V35.2391H57.3071H57.307ZM40.18 24.8053C38.1094 24.8053 37.0735 26.5142 37.0735 29.9296C37.0735 31.8861 37.348 33.3048 37.896 34.189C38.4035 35.0073 39.1983 35.4157 40.2806 35.4157C42.3512 35.4157 43.387 33.6935 43.387 30.2508C43.387 28.3217 43.1125 26.9152 42.5652 26.0305C42.0571 25.214 41.2626 24.8053 40.1801 24.8053H40.18Z" fill="#F29111"/>
<path d="M34.7528 1.34047C35.4397 -0.347327 37.8414 0.930839 38.7735 1.52041C39.0019 1.66792 39.2639 1.97955 39.5258 2.09474C39.9344 2.11078 40.3426 2.14276 40.7519 2.15984C41.5196 2.34024 42.2387 2.48763 42.8436 2.83216C45.6548 4.48774 47.4849 6.17485 49.1691 8.96156C49.529 9.55181 49.7088 10.1906 50.0028 10.8293C50.4108 11.7814 50.8693 12.7808 51.3429 13.6811C51.5549 14.1079 51.7189 14.5825 52.0133 14.943C52.1283 15.1078 52.4548 15.1564 52.65 15.2549C53.1896 15.5342 53.8434 15.7462 54.3509 16.074C55.2986 16.6649 56.215 17.3691 57.048 18.09C57.3584 18.3683 57.57 18.7622 57.8658 19.0566V19.2051C57.6033 19.2857 57.3416 19.3682 57.0797 19.4343C56.5077 19.5813 56.001 19.548 55.446 19.6951C55.1031 19.7946 54.6773 19.9258 54.3176 19.9592L54.3509 19.9926C54.5625 20.5972 55.7072 21.0889 56.2308 21.4505C56.8666 21.9094 57.4559 22.466 57.9301 23.1052C58.0939 23.2683 58.2577 23.4167 58.4207 23.5793C58.5346 23.7441 58.5667 23.9573 58.682 24.1042V24.154C58.5543 24.1089 58.4625 24.023 58.3755 23.9331L58.3236 23.8789C58.2717 23.8251 58.2193 23.7721 58.1596 23.7284C57.7988 23.482 57.4405 23.1872 57.0797 22.9581C56.4594 22.5645 55.74 22.3361 55.1031 21.941C54.743 21.7117 54.3997 21.4505 54.0564 21.188C53.7453 20.958 53.4026 20.5163 53.207 20.1885C53.0919 20.0074 53.076 19.7946 52.9445 19.6636C52.968 19.4448 53.1684 19.3798 53.3707 19.3264L53.4172 19.3141C53.487 19.296 53.5554 19.2779 53.615 19.2539C54.4647 18.8931 55.4778 18.7622 56.786 18.795C56.7367 18.4665 55.9192 18.0573 55.6583 17.8606C55.1345 17.483 54.5799 17.0891 54.0242 16.7455C53.7298 16.5656 53.2224 16.4342 52.8962 16.2872C52.4548 16.1068 51.4739 15.9265 51.2293 15.5829C50.8138 15.0412 50.5153 14.3951 50.2256 13.7425L50.1468 13.5644C50.1205 13.5051 50.0941 13.4457 50.0677 13.3864C49.7252 12.6005 49.2998 11.7812 48.9565 10.9765C48.777 10.5839 48.6946 10.2394 48.498 9.86287C47.3053 7.5525 45.5399 5.61817 43.3995 4.25783C42.6961 3.81519 41.9118 3.40557 41.046 3.12717C40.5554 2.97898 39.9665 3.06092 39.4437 2.94723H39.0997C38.806 2.86448 38.5609 2.55319 38.3317 2.38906C37.8257 2.04545 37.3189 1.81474 36.7137 1.56958C36.5017 1.47124 35.8962 1.24224 35.6849 1.42253C35.554 1.45542 35.4876 1.50482 35.4554 1.63617C35.3252 1.83216 35.4397 2.1274 35.5207 2.30815C35.7662 2.83193 36.1092 3.14322 36.4205 3.58585C36.6974 3.9784 37.0413 4.42104 37.2376 4.84786C37.6613 5.76534 37.8585 6.78184 38.2511 7.69921C38.3966 8.04419 38.6269 8.43674 38.8388 8.74792C39.0184 8.99491 39.3449 9.17348 39.4437 9.48614C39.6406 9.81393 39.1489 10.8955 39.0351 11.239C38.6093 12.5831 38.6919 14.4514 39.1822 15.6165L39.2083 15.6779L39.2344 15.7401C39.4135 16.1668 39.6051 16.6263 40.0811 16.7456C40.1139 16.7131 40.0811 16.7302 40.1461 16.7131C40.2613 15.8113 40.2937 14.9429 40.6045 14.2373C40.7841 13.7962 41.1427 13.4843 41.3886 13.1242C41.5525 13.2223 41.5525 13.5181 41.6501 13.7139C41.8629 14.2216 42.0913 14.7783 42.3535 15.2875C42.8917 16.3362 43.4974 17.353 44.1835 18.2703C44.4133 18.598 44.7394 18.9587 45.0335 19.2538C45.1645 19.3681 45.3112 19.4341 45.4097 19.5812H45.4418V19.6307C44.9515 19.4499 44.6406 18.9426 44.2496 18.6465C43.5133 18.0898 42.6316 17.2538 42.1241 16.4516C41.9118 15.9911 41.6823 15.5498 41.4536 15.0915V15.0584C41.3558 15.1893 41.3886 15.3193 41.3396 15.5173C41.1274 16.3362 41.2908 17.2704 40.5554 17.565C39.7217 17.91 39.0998 17.0083 38.8388 16.5986C38.0049 15.2386 37.7764 12.9442 38.3645 11.0922C38.4952 10.6822 38.5129 10.1906 38.741 9.86322C38.6917 9.56729 38.4637 9.48637 38.3317 9.30505C38.103 8.99514 37.9071 8.63411 37.728 8.28992C37.3839 7.6176 37.1391 6.81428 36.8779 6.09325C36.763 5.7988 36.7301 5.50322 36.6156 5.22448C36.4203 4.79903 36.0603 4.37221 35.7826 3.99582C35.4066 3.45485 34.3113 2.40637 34.7528 1.34047ZM40.1135 4.55135C40.1572 4.59514 40.2099 4.63342 40.2645 4.67113L40.3303 4.71628C40.4179 4.77703 40.5029 4.84098 40.5549 4.92809C40.6374 5.04339 40.6528 5.1572 40.7516 5.27273C40.7516 5.66666 40.6374 5.92855 40.4069 6.09176C40.4069 6.09176 40.3912 6.10895 40.3751 6.12499C40.2444 5.86241 40.1299 5.60121 39.9983 5.33886C39.8363 5.10986 39.6072 4.9282 39.4751 4.66654H39.4434V4.63365C39.6406 4.58494 39.8363 4.55135 40.1135 4.55135Z" fill="#00758F"/>
</g>
<defs>
<clipPath id="clip0_1_171">
<rect width="58.6819" height="40" fill="white" transform="translate(0 0.5)"/>
</clipPath>
</defs>
</svg>
