<svg width="41" height="41" viewBox="0 0 41 41" fill="none" xmlns="http://www.w3.org/2000/svg">
<g clip-path="url(#clip0_1_159)">
<path fill-rule="evenodd" clip-rule="evenodd" d="M0.976929 20.8752C0.977058 17.4241 1.87021 14.0318 3.56953 11.028C5.26886 8.02426 7.71653 5.51135 10.6745 3.73361C13.6326 1.95587 17.0003 0.973811 20.4502 0.882916C23.9001 0.792021 27.3148 1.59539 30.3624 3.2149C33.4099 4.8344 35.9865 7.21495 37.8416 10.125C39.6967 13.0351 40.7673 16.3758 40.9491 19.8221C41.131 23.2684 40.418 26.7031 38.8794 29.7923C37.3408 32.8815 35.0291 35.52 32.1689 37.4512L14.0623 12.1019C13.8982 11.872 13.6654 11.7001 13.3973 11.6111C13.1293 11.522 12.8399 11.5204 12.5709 11.6064C12.3018 11.6924 12.0671 11.8616 11.9004 12.0897C11.7338 12.3177 11.6438 12.5928 11.6436 12.8752V32.8752H14.3103V17.0352L29.8569 38.8006C26.8073 40.3117 23.4226 41.0196 20.023 40.8573C16.6234 40.6949 13.3215 39.6677 10.4298 37.8729C7.53803 36.078 5.15217 33.5749 3.49801 30.6005C1.84385 27.6261 0.976113 24.2787 0.976929 20.8752ZM27.6436 27.5419V11.5419H30.3103V27.5419H27.6436Z" fill="white"/>
</g>
<defs>
<clipPath id="clip0_1_159">
<rect width="40" height="40" fill="white" transform="translate(0.976929 0.875)"/>
</clipPath>
</defs>
</svg>
