<svg width="40" height="40" viewBox="0 0 40 40" fill="none" xmlns="http://www.w3.org/2000/svg">
<g clip-path="url(#clip0_1_82)">
<path fill-rule="evenodd" clip-rule="evenodd" d="M5.75647e-07 20.0002C0.000128831 16.5491 0.893278 13.1568 2.5926 10.153C4.29193 7.14926 6.7396 4.63635 9.69761 2.85861C12.6556 1.08087 16.0233 0.0988109 19.4732 0.00791595C22.9232 -0.082979 26.3379 0.720386 29.3854 2.3399C32.4329 3.9594 35.0095 6.33995 36.8647 9.25004C38.7198 12.1601 39.7904 15.5008 39.9722 18.9471C40.1541 22.3934 39.441 25.8281 37.9025 28.9173C36.3639 32.0065 34.0522 34.645 31.192 36.5762L13.0853 11.2269C12.9213 10.997 12.6884 10.8251 12.4204 10.7361C12.1524 10.647 11.863 10.6454 11.5939 10.7314C11.3249 10.8174 11.0901 10.9866 10.9235 11.2147C10.7568 11.4427 10.6669 11.7178 10.6667 12.0002V32.0002H13.3333V16.1602L28.88 37.9256C25.8304 39.4367 22.4456 40.1446 19.0461 39.9823C15.6465 39.8199 12.3445 38.7927 9.45282 36.9979C6.5611 35.203 4.17524 32.6999 2.52108 29.7255C0.866923 26.7511 -0.000815899 23.4037 5.75647e-07 20.0002V20.0002ZM26.6667 26.6669V10.6669H29.3333V26.6669H26.6667Z" fill="#122029"/>
</g>
<defs>
<clipPath id="clip0_1_82">
<rect width="40" height="40" fill="white"/>
</clipPath>
</defs>
</svg>
