<svg width="42" height="41" viewBox="0 0 42 41" fill="none" xmlns="http://www.w3.org/2000/svg">
<g clip-path="url(#clip0_1_197)">
<path d="M34.8266 0.125H7.46663C3.71109 0.125 0.666626 3.16946 0.666626 6.925V33.261C0.666626 37.0165 3.71109 40.061 7.46663 40.061H34.8266C38.5822 40.061 41.6266 37.0165 41.6266 33.261V6.925C41.6266 3.16946 38.5822 0.125 34.8266 0.125Z" fill="#001E36"/>
<path d="M9.88965 28.1307V10.5726C9.88965 10.4446 9.94469 10.3803 10.0546 10.3803L10.2285 10.3798L10.5258 10.3766L10.9389 10.3684L12.3229 10.3391L13.8069 10.3116C14.3288 10.3027 14.8463 10.2979 15.3592 10.2979C16.7512 10.2979 17.9236 10.4719 18.8764 10.8199C19.7358 11.1106 20.5197 11.5894 21.1708 12.2212C21.7227 12.7689 22.1493 13.4299 22.421 14.1585C22.678 14.8675 22.8083 15.6162 22.8058 16.3703C22.8058 17.8361 22.4668 19.0451 21.789 19.9974C21.1261 20.9264 20.2014 21.637 19.133 22.0383L19.0413 22.0719C17.9256 22.4881 16.6901 22.6385 15.3351 22.6479L15.1245 22.6486L14.812 22.647L14.6544 22.6447L14.4788 22.6406L14.3728 22.6364L14.3085 22.6331L14.1503 22.6273L13.9568 22.6233L13.6656 22.6212L13.6008 22.6211V28.1031C13.6057 28.1367 13.6026 28.171 13.5919 28.2032C13.5811 28.2354 13.563 28.2647 13.539 28.2887C13.515 28.3127 13.4858 28.3308 13.4536 28.3415C13.4214 28.3522 13.3871 28.3553 13.3535 28.3505H10.0821C9.95365 28.3505 9.88965 28.2775 9.88965 28.1307ZM13.601 13.6775V19.4043C13.8203 19.4219 14.0402 19.4311 14.2602 19.4318H15.1671C15.7923 19.4297 16.4139 19.3366 17.0124 19.1555L17.1317 19.1182C17.6761 18.9565 18.1626 18.6417 18.5332 18.2113C18.8775 17.8052 19.0559 17.2457 19.0682 16.5326L19.069 16.4527C19.0834 15.9212 18.9452 15.3967 18.6704 14.9415C18.3817 14.5013 17.9644 14.1607 17.4752 13.966C16.8365 13.7178 16.1543 13.601 15.4693 13.6227L15.1208 13.6236L14.901 13.6255L14.6912 13.6283L14.3952 13.634L14.1792 13.6401L14.0671 13.6443L13.9172 13.6513L13.7895 13.6591L13.7167 13.6649L13.6538 13.671L13.6261 13.6742L13.601 13.6775ZM33.4298 18.363C32.9505 18.1167 32.4421 17.9316 31.9165 17.8123L31.7949 17.786C31.2168 17.6533 30.6265 17.5803 30.0335 17.5679L29.8853 17.5662C29.5377 17.5568 29.1905 17.5984 28.8549 17.6899C28.6413 17.7374 28.4514 17.859 28.3189 18.0332C28.2294 18.1726 28.1817 18.3347 28.1816 18.5004C28.1867 18.6611 28.2446 18.8156 28.3464 18.9399C28.4923 19.1105 28.6676 19.2534 28.864 19.3619L28.9236 19.3934C29.3153 19.6043 29.719 19.7924 30.1325 19.9566C31.0547 20.2653 31.9358 20.6851 32.7565 21.2068C33.3157 21.5597 33.7784 22.046 34.1031 22.622C34.376 23.1673 34.5127 23.7707 34.5015 24.3804C34.5179 25.1857 34.2878 25.9767 33.842 26.6475C33.3647 27.3282 32.7018 27.8575 31.9322 28.1723C31.1263 28.5265 30.1365 28.7094 28.9631 28.7214L28.8412 28.722C28.1137 28.7294 27.3873 28.6657 26.6722 28.5319L26.5192 28.5022C25.9172 28.3918 25.3311 28.2071 24.7744 27.9526C24.7185 27.9237 24.6712 27.8805 24.6374 27.8273C24.6037 27.7742 24.5846 27.7131 24.5821 27.6502V24.6553C24.5788 24.6262 24.5835 24.5968 24.5956 24.5702C24.6077 24.5435 24.6268 24.5207 24.6509 24.5041C24.6745 24.4908 24.7016 24.4849 24.7286 24.4874C24.7556 24.4899 24.7812 24.5005 24.802 24.5179C25.4593 24.9055 26.1731 25.1882 26.9176 25.3559C27.5739 25.5204 28.2471 25.6081 28.9236 25.6171C29.5645 25.6171 30.0362 25.5345 30.3386 25.3697C30.4752 25.3072 30.5907 25.2064 30.6711 25.0796C30.7516 24.9529 30.7936 24.8055 30.792 24.6553C30.792 24.4175 30.6546 24.1884 30.3799 23.9684C30.2647 23.8763 30.0994 23.7759 29.8844 23.6676L29.7815 23.6171L29.6717 23.5654L29.6141 23.5391L29.4935 23.4857C29.4726 23.4766 29.4516 23.4675 29.4306 23.4585L29.2994 23.4035L29.2311 23.3755L29.0893 23.3187L29.0157 23.2899L28.8632 23.2311L28.7037 23.1714C27.8409 22.8712 27.0229 22.4552 26.2719 21.935C25.7348 21.5614 25.2926 21.0674 24.9805 20.4924C24.7103 19.951 24.5737 19.3527 24.5821 18.7476C24.5806 18.0206 24.7803 17.3073 25.1591 16.6868C25.5911 16.0036 26.2112 15.4596 26.9452 15.1207C27.7511 14.718 28.7584 14.5164 29.9676 14.5161C30.6757 14.5104 31.3832 14.561 32.0834 14.6673C32.5904 14.7316 33.0861 14.8657 33.5564 15.0657C33.632 15.0875 33.693 15.1433 33.7212 15.2169C33.7399 15.2839 33.749 15.3532 33.7487 15.423V18.1982C33.7527 18.2638 33.7212 18.3267 33.6663 18.363C33.6295 18.3812 33.5891 18.3907 33.548 18.3907C33.507 18.3907 33.4665 18.3812 33.4298 18.363Z" fill="#31A8FF"/>
</g>
<defs>
<clipPath id="clip0_1_197">
<rect width="40.96" height="40" fill="white" transform="translate(0.666626 0.125)"/>
</clipPath>
</defs>
</svg>
