<svg width="60" height="33" viewBox="0 0 60 33" fill="none" xmlns="http://www.w3.org/2000/svg">
<g clip-path="url(#clip0_1_166)">
<path d="M30 32.2266C46.5685 32.2266 60 25.1646 60 16.4531C60 7.7417 46.5685 0.679688 30 0.679688C13.4315 0.679688 0 7.7417 0 16.4531C0 25.1646 13.4315 32.2266 30 32.2266Z" fill="url(#paint0_radial_1_166)"/>
<path d="M30 31.0547C45.9213 31.0547 58.8281 24.5173 58.8281 16.4531C58.8281 8.38891 45.9213 1.85156 30 1.85156C14.0787 1.85156 1.17188 8.38891 1.17188 16.4531C1.17188 24.5173 14.0787 31.0547 30 31.0547Z" fill="#6181B6"/>
<path d="M35.836 21.1875L37.2657 13.8281C37.5938 12.1641 37.3125 10.9219 36.4688 10.1484C35.6485 9.39844 34.2422 9.02344 32.1797 9.02344H29.6953L30.3985 5.36719C30.4219 5.22656 30.3985 5.08594 30.3047 4.96875C30.211 4.85156 30.0938 4.80469 29.9532 4.80469H26.5313C26.2969 4.80469 26.1094 4.96875 26.0625 5.17969L24.5391 12.9844C24.3985 12.0938 24.0703 11.3438 23.5078 10.7344C22.5 9.58594 20.9297 9 18.7969 9H12.211C11.9766 9 11.7891 9.16406 11.7422 9.375L8.67191 25.2188C8.64847 25.3594 8.67191 25.5 8.76566 25.6172C8.85941 25.7344 8.97659 25.7812 9.11722 25.7812H12.5625C12.7969 25.7812 12.9844 25.6172 13.0313 25.4062L13.7813 21.5859H16.336C17.6719 21.5859 18.8203 21.4453 19.6875 21.1641C20.6016 20.8594 21.4219 20.3672 22.1485 19.6875C22.7344 19.1484 23.2266 18.5391 23.6016 17.8828L22.9922 21.0469C22.9688 21.1875 22.9922 21.3281 23.086 21.4453C23.1797 21.5625 23.2969 21.6094 23.4375 21.6094H26.8594C27.0938 21.6094 27.2813 21.4453 27.3282 21.2344L29.0157 12.5625H31.3594C32.3672 12.5625 32.6485 12.75 32.7422 12.8438C32.8125 12.9141 32.9532 13.1953 32.7891 14.0625L31.4297 21.0703C31.4063 21.2109 31.4297 21.3516 31.5235 21.4688C31.6172 21.5859 31.7344 21.6328 31.875 21.6328H35.3907C35.6016 21.5625 35.7891 21.3984 35.836 21.1875ZM19.9922 15.0938C19.7813 16.1953 19.3828 16.9922 18.7969 17.4375C18.211 17.8828 17.25 18.1172 15.9844 18.1172H14.461L15.5625 12.4453H17.5313C18.9844 12.4453 19.5703 12.75 19.8047 13.0078C20.1094 13.3828 20.1797 14.1094 19.9922 15.0938ZM50.461 10.7344C49.4532 9.58594 47.8828 9 45.75 9H39.1172C38.8828 9 38.6953 9.16406 38.6485 9.375L35.5782 25.1953C35.5547 25.3359 35.5782 25.4766 35.6719 25.5938C35.7657 25.7109 35.8828 25.7578 36.0235 25.7578H39.4688C39.7032 25.7578 39.8907 25.5938 39.9375 25.3828L40.6875 21.5625H43.2422C44.5782 21.5625 45.7266 21.4219 46.5938 21.1406C47.5078 20.8359 48.3282 20.3438 49.0547 19.6641C49.6641 19.1016 50.1797 18.4688 50.5547 17.7891C50.9297 17.1094 51.211 16.3594 51.375 15.5391C51.7735 13.5 51.4688 11.9063 50.461 10.7344ZM46.875 15.0938C46.6641 16.1953 46.2657 16.9922 45.6797 17.4375C45.0938 17.8828 44.1328 18.1172 42.8672 18.1172H41.3438L42.4453 12.4453H44.4141C45.8672 12.4453 46.4532 12.75 46.6875 13.0078C47.0157 13.3828 47.086 14.1094 46.875 15.0938Z" fill="white"/>
<path d="M17.5313 11.9766C18.8438 11.9766 19.7109 12.2109 20.1563 12.7031C20.6016 13.1953 20.6953 14.0156 20.4609 15.1875C20.2266 16.4063 19.7578 17.2969 19.0781 17.8125C18.3984 18.3281 17.3672 18.5859 15.9844 18.5859H13.8984L15.1875 11.9766H17.5313ZM9.14062 25.2891H12.5859L13.4063 21.0938H16.3594C17.6719 21.0938 18.7266 20.9531 19.5703 20.6719C20.4141 20.3906 21.1641 19.9453 21.8672 19.2891C22.4531 18.75 22.9219 18.1641 23.2734 17.5313C23.625 16.8984 23.8828 16.1953 24.0234 15.4219C24.3984 13.5469 24.1172 12.0938 23.2031 11.0391C22.2891 9.98438 20.8359 9.46875 18.8438 9.46875H12.2109L9.14062 25.2891ZM26.5547 5.27344H29.9766L29.1563 9.46875H32.2031C34.125 9.46875 35.4375 9.79687 36.1641 10.4766C36.8906 11.1562 37.1016 12.2344 36.8203 13.7344L35.3906 21.0938H31.9219L33.2813 14.0859C33.4453 13.2891 33.375 12.75 33.1172 12.4687C32.8594 12.1875 32.2734 12.0234 31.4063 12.0234H28.6641L26.9063 21.0938H23.4844L26.5547 5.27344ZM44.4141 11.9766C45.7266 11.9766 46.5938 12.2109 47.0391 12.7031C47.4844 13.1953 47.5781 14.0156 47.3438 15.1875C47.1094 16.4063 46.6406 17.2969 45.9609 17.8125C45.2813 18.3281 44.25 18.5859 42.8672 18.5859H40.7813L42.0703 11.9766H44.4141ZM36.0234 25.2891H39.4688L40.2891 21.0938H43.2422C44.5547 21.0938 45.6094 20.9531 46.4531 20.6719C47.2969 20.3906 48.0469 19.9453 48.75 19.2891C49.3359 18.75 49.8047 18.1641 50.1563 17.5313C50.5078 16.8984 50.7656 16.1953 50.9063 15.4219C51.2813 13.5469 51 12.0938 50.0859 11.0391C49.1719 9.98438 47.7188 9.46875 45.7266 9.46875H39.0938L36.0234 25.2891Z" fill="#000004"/>
</g>
<defs>
<radialGradient id="paint0_radial_1_166" cx="0" cy="0" r="1" gradientUnits="userSpaceOnUse" gradientTransform="translate(18.0121 6.22676) scale(39.3974 39.3974)">
<stop stop-color="white"/>
<stop offset="0.5" stop-color="#4C6B97"/>
<stop offset="1" stop-color="#231F20"/>
</radialGradient>
<clipPath id="clip0_1_166">
<rect width="60" height="31.6406" fill="white" transform="translate(0 0.679688)"/>
</clipPath>
</defs>
</svg>
