<svg width="41" height="43" viewBox="0 0 41 43" fill="none" xmlns="http://www.w3.org/2000/svg">
<g clip-path="url(#clip0_9_191)">
<path d="M40.5268 25.576C40.287 24.8496 39.6587 24.3437 38.8462 24.2222C38.4631 24.1651 38.0243 24.1894 37.5051 24.2965C36.6001 24.4832 35.9287 24.5543 35.4387 24.568C37.2882 21.4454 38.7921 17.8844 39.6579 14.5324C41.0579 9.11225 40.3098 6.64303 39.4356 5.52615C37.122 2.5699 33.7465 0.981777 29.6743 0.933183C27.502 0.906621 25.5949 1.33553 24.6001 1.64396C23.6739 1.48053 22.6779 1.38928 21.6329 1.3724C19.674 1.34115 17.9432 1.76818 16.4643 2.64584C15.6456 2.36896 14.3315 1.97865 12.814 1.72959C9.24495 1.14365 6.36839 1.60021 4.26433 3.08662C1.71651 4.88631 0.53542 8.01318 0.753857 12.3804C0.823232 13.7669 1.59886 17.9857 2.82011 21.9866C3.52198 24.2863 4.27042 26.196 5.04464 27.6632C6.14261 29.7437 7.31745 30.9688 8.63636 31.4088C9.37558 31.6551 10.7187 31.8276 12.1314 30.651C12.3104 30.8679 12.5493 31.0833 12.8664 31.2835C13.269 31.5374 13.7614 31.7449 14.2531 31.8679C16.0251 32.3108 17.685 32.2001 19.101 31.5791C19.1098 31.831 19.1165 32.0716 19.1221 32.2794C19.1315 32.6165 19.1409 32.9469 19.1532 33.256C19.2371 35.3457 19.3793 36.9705 19.8006 38.1074C19.8237 38.1699 19.8548 38.2652 19.8876 38.3663C20.0978 39.0097 20.4492 40.0869 21.3432 40.9305C22.269 41.8044 23.3889 42.0724 24.4145 42.0724C24.9289 42.0724 25.4196 42.0049 25.8501 41.9127C27.3845 41.5838 29.1271 41.0829 30.3878 39.2879C31.5796 37.591 32.159 35.0352 32.2639 31.0082C32.2775 30.8943 32.29 30.7855 32.302 30.6819L32.327 30.4691L32.6078 30.4938L32.6801 30.4987C34.2429 30.5699 36.1539 30.2385 37.3274 29.6933C38.2548 29.263 41.2265 27.6941 40.5268 25.576Z" fill="black"/>
<path d="M37.8546 25.9878C33.2078 26.9464 32.8882 25.3731 32.8882 25.3731C37.7945 18.093 39.8456 8.85189 38.0757 6.59018C33.247 0.420644 24.8884 3.33846 24.7489 3.41408L24.704 3.42221C23.7859 3.23158 22.7585 3.11814 21.6037 3.09924C19.5012 3.06486 17.9062 3.65049 16.6959 4.5683C16.6959 4.5683 1.78495 -1.57451 2.47855 12.2939C2.62605 15.2442 6.7073 34.6178 11.5751 28.7661C13.3543 26.6263 15.0735 24.8171 15.0735 24.8171C15.9273 25.3842 16.9495 25.6736 18.021 25.5697L18.1043 25.4991C18.0784 25.7647 18.0903 26.0245 18.1376 26.3322C16.8835 27.7333 17.2521 27.9792 14.7453 28.4953C12.2085 29.0181 13.6987 29.9488 14.6717 30.1922C15.8512 30.4871 18.58 30.9049 20.4237 28.3238L20.3503 28.6183C20.8415 29.0119 21.1865 31.1781 21.1287 33.1421C21.0709 35.1058 21.0323 36.4541 21.4193 37.5072C21.8067 38.5603 22.1925 40.9299 25.4881 40.2238C28.2417 39.6336 29.6687 38.1044 29.8673 35.5535C30.0081 33.74 30.327 34.0081 30.347 32.3867L30.6028 31.6192C30.8976 29.161 30.6496 28.3678 32.346 28.7367L32.7585 28.773C34.007 28.8297 35.6414 28.5721 36.6006 28.1263C38.6659 27.1678 39.8909 25.5674 37.8543 25.9878H37.8546Z" fill="#336791"/>
<path d="M17.5688 13.6133C17.1501 13.555 16.7708 13.6089 16.579 13.7542C16.4712 13.836 16.4377 13.9307 16.4287 13.9958C16.4046 14.1685 16.5255 14.3594 16.5999 14.4578C16.8102 14.7366 17.1174 14.9282 17.4215 14.9703C17.4655 14.9766 17.5094 14.9794 17.553 14.9794C18.0601 14.9794 18.5212 14.5846 18.5618 14.2932C18.6126 13.9282 18.0827 13.6849 17.5688 13.6135M31.4413 13.6249C31.4013 13.3388 30.8922 13.2572 30.4091 13.3244C29.9266 13.3916 29.4588 13.6094 29.4979 13.8961C29.5291 14.1191 29.9318 14.4997 30.4083 14.4997C30.4487 14.4997 30.4893 14.4971 30.5302 14.4913C30.8483 14.4472 31.0818 14.2452 31.1927 14.1288C31.3615 13.9513 31.4593 13.7535 31.4413 13.6249Z" fill="white"/>
<path d="M39.4009 25.8789C39.2238 25.3431 38.6534 25.1708 37.7059 25.3664C34.8927 25.947 33.8852 25.5449 33.5544 25.3013C35.7411 21.97 37.54 17.9431 38.5105 14.1861C38.9702 12.4064 39.2241 10.7536 39.2448 9.40642C39.2678 7.92782 39.0159 6.84126 38.4966 6.17751C36.4025 3.50173 33.3291 2.06642 29.6088 2.02704C27.0511 1.99829 24.8902 2.65282 24.4713 2.83689C23.5891 2.61751 22.6273 2.48282 21.5803 2.46564C19.6603 2.43454 18.0006 2.89423 16.6266 3.83126C16.0297 3.60907 14.4872 3.07954 12.6008 2.77564C9.33953 2.25063 6.74797 2.64845 4.89859 3.9586C2.69188 5.52204 1.67313 8.31673 1.87047 12.2649C1.93688 13.5931 2.69375 17.6794 3.88813 21.5927C5.46031 26.7433 7.16937 29.6591 8.9675 30.2589C9.17797 30.3291 9.42063 30.3781 9.68828 30.3781C10.3442 30.3781 11.1484 30.0825 11.9852 29.0766C13.0057 27.8523 14.0614 26.6577 15.1509 25.4944C15.8578 25.8738 16.6344 26.0856 17.4286 26.1069C17.4302 26.1277 17.4322 26.1484 17.4341 26.1691C17.2973 26.3321 17.1635 26.4975 17.0325 26.6652C16.4822 27.3638 16.3677 27.5092 14.5963 27.8739C14.0923 27.978 12.7541 28.2538 12.7344 29.1919C12.7131 30.2169 14.3164 30.6474 14.4991 30.693C15.1356 30.8524 15.7489 30.9309 16.3337 30.9309C17.7561 30.9309 19.0078 30.4634 20.0081 29.5589C19.9773 33.213 20.1297 36.8136 20.5684 37.9106C20.9278 38.8088 21.8056 41.0036 24.5784 41.0034C24.9853 41.0034 25.4331 40.9561 25.9258 40.8505C28.8197 40.2302 30.0764 38.9511 30.5625 36.1313C30.8227 34.6242 31.2691 31.0256 31.4791 29.0953C31.9222 29.2336 32.4927 29.2969 33.1094 29.2967C34.3956 29.2967 35.8798 29.0234 36.8106 28.5914C37.8563 28.1058 39.7431 26.9142 39.4009 25.8789ZM32.5094 12.8352C32.4998 13.405 32.4214 13.9224 32.3383 14.4624C32.2488 15.0431 32.1562 15.6436 32.133 16.3725C32.11 17.0819 32.1986 17.8194 32.2842 18.5327C32.4573 19.9733 32.635 21.4564 31.9473 22.9199C31.8331 22.7175 31.7314 22.5083 31.6427 22.2934C31.5572 22.0863 31.3716 21.7534 31.1145 21.2928C30.1147 19.4997 27.7733 15.3006 28.9719 13.5872C29.3289 13.0772 30.235 12.5528 32.5094 12.8352ZM29.7525 3.18095C33.0859 3.25454 35.7228 4.50157 37.5897 6.8872C39.0216 8.71704 37.4448 17.0431 32.8803 24.2261C32.8344 24.1677 32.7883 24.1096 32.7419 24.0516L32.6841 23.9794C33.8636 22.0314 33.633 20.1041 33.4277 18.3953C33.3433 17.6941 33.2636 17.0317 33.2839 16.4095C33.3048 15.7502 33.392 15.1845 33.4764 14.6377C33.58 13.9638 33.6855 13.2664 33.6564 12.4444C33.6781 12.3581 33.6869 12.2563 33.6755 12.1353C33.6012 11.347 32.7013 8.98782 30.8669 6.85251C29.8634 5.68454 28.4002 4.37751 26.4022 3.49595C27.2616 3.31782 28.4367 3.15173 29.7525 3.18095ZM11.0997 28.3403C10.1778 29.4488 9.54125 29.2363 9.33188 29.1666C7.96781 28.7116 6.385 25.8284 4.98953 21.2566C3.78203 17.3006 3.07641 13.3227 3.02047 12.2072C2.84422 8.67938 3.69938 6.22079 5.56234 4.89954C8.59422 2.74954 13.5789 4.03642 15.5819 4.68907C15.5531 4.71751 15.5231 4.74407 15.4947 4.77298C12.2078 8.09235 12.2858 13.7636 12.2939 14.1103C12.2936 14.2441 12.3048 14.4334 12.3202 14.6939C12.3767 15.6478 12.482 17.4231 12.2008 19.4336C11.9395 21.3019 12.5155 23.1305 13.7806 24.4506C13.9105 24.5859 14.0469 24.7146 14.1895 24.8363C13.6264 25.4394 12.4025 26.7731 11.0997 28.3403ZM14.612 23.6539C13.5923 22.5899 13.1292 21.1099 13.3412 19.593C13.6381 17.4692 13.5286 15.6195 13.4697 14.6258C13.4614 14.4867 13.4541 14.3649 13.4498 14.2688C13.93 13.843 16.1552 12.6508 17.742 13.0144C18.4661 13.1802 18.9073 13.6733 19.0908 14.5214C20.0402 18.9125 19.2164 20.7427 18.5545 22.2134C18.4181 22.5164 18.2892 22.8028 18.1792 23.0991L18.0939 23.3281C17.878 23.9072 17.677 24.4456 17.5525 24.9569C16.4684 24.9538 15.4139 24.4906 14.612 23.6538V23.6539ZM14.7784 29.5758C14.4619 29.4967 14.1772 29.3594 14.0102 29.2455C14.1497 29.1799 14.398 29.0905 14.8286 29.0017C16.9125 28.5728 17.2344 28.27 17.9372 27.3777C18.0983 27.173 18.2809 26.9411 18.5339 26.6586L18.5342 26.6583C18.9109 26.2364 19.0833 26.308 19.3958 26.4377C19.6491 26.5424 19.8958 26.8599 19.9958 27.2092C20.0431 27.3742 20.0963 27.6874 19.9223 27.9311C18.4542 29.9867 16.3148 29.9603 14.7784 29.5758ZM25.6845 39.7245C23.1352 40.2708 22.2325 38.97 21.6377 37.483C21.2538 36.523 21.065 32.1939 21.1989 27.4131C21.2006 27.3495 21.1916 27.2881 21.1741 27.2303C21.1584 27.1162 21.1346 27.0033 21.1028 26.8925C20.9037 26.1969 20.4186 25.615 19.8366 25.3738C19.6053 25.278 19.1809 25.1022 18.6709 25.2327C18.7797 24.7845 18.9683 24.2784 19.1728 23.7305L19.2586 23.5C19.3552 23.2402 19.4764 22.9709 19.6045 22.6859C20.2972 21.1472 21.2458 19.0395 20.2162 14.2781C19.8306 12.4947 18.5428 11.6238 16.5906 11.8261C15.4203 11.9472 14.3495 12.4194 13.8155 12.6902C13.7006 12.7483 13.5956 12.8045 13.4975 12.8592C13.6466 11.0624 14.2097 7.70423 16.3162 5.57954C17.6427 4.24204 19.4091 3.58142 21.5613 3.61704C25.8019 3.68642 28.5213 5.86267 30.0559 7.67626C31.3784 9.23892 32.0945 10.8131 32.3803 11.6622C30.2311 11.4436 28.7694 11.8678 28.0284 12.9272C26.4164 15.2316 28.9103 19.7041 30.1089 21.8536C30.3287 22.2475 30.5184 22.588 30.5781 22.7327C30.9684 23.6786 31.4738 24.3102 31.8427 24.7711C31.9558 24.9124 32.0655 25.0494 32.1489 25.1691C31.498 25.3567 30.3288 25.7903 30.4353 27.9577C30.3494 29.0452 29.7383 34.1367 29.4278 35.9356C29.018 38.3122 28.1434 39.1974 25.6845 39.7247V39.7245ZM36.3258 27.547C35.6602 27.8559 34.5462 28.0877 33.4881 28.1375C32.3194 28.1922 31.7244 28.0066 31.5844 27.8924C31.5188 26.5417 32.0214 26.4006 32.5534 26.2513C32.637 26.2278 32.7186 26.2049 32.7973 26.1774C32.8463 26.2172 32.8998 26.2567 32.9586 26.2955C33.898 26.9155 35.5734 26.9824 37.9389 26.4941L37.9648 26.4889C37.6458 26.7872 37.0998 27.1875 36.3258 27.547Z" fill="white"/>
</g>
<defs>
<clipPath id="clip0_9_191">
<rect width="40" height="41.25" fill="white" transform="translate(0.681885 0.875)"/>
</clipPath>
</defs>
</svg>
