<svg width="128" height="128" viewBox="0 0 128 128" fill="none" xmlns="http://www.w3.org/2000/svg">
<path d="M113.117 26.0661C92.168 -1.06194 53.191 -6.06994 26.062 14.8831C-1.06302 35.8361 -6.06602 74.8131 14.887 101.938C35.844 129.062 74.824 134.062 101.945 113.105C129.059 92.1521 134.063 53.1871 113.117 26.0661Z" fill="#F37036"/>
<path d="M91.078 24.1641C88.9414 24.3348 86.9156 25.185 85.297 26.5901C83.4024 28.235 82.1932 30.5303 81.9081 33.0231C81.623 35.5158 82.2827 38.0249 83.757 40.0551C85.2293 42.0862 87.4094 43.4917 89.8671 43.9943C92.3247 44.4969 94.8816 44.0601 97.033 42.7701H97.035L97.191 42.9261C97.8995 42.5199 98.5589 42.0333 99.156 41.4761C100.998 39.5279 102.011 36.9407 101.982 34.2601C101.952 31.5794 100.883 29.0148 99 27.1071V27.1051L90.156 35.8941L90 35.7391L98.844 26.9461C97.8203 25.9591 96.5986 25.2008 95.2598 24.7216C93.9209 24.2423 92.4955 24.053 91.078 24.1661V24.1641ZM79.434 38.5511C75.194 38.5441 68.271 43.3501 51.367 60.2541L51.451 60.3401C51.359 60.3081 51.266 60.3051 51.266 60.3051L44.902 66.6131C44.7386 66.7685 44.6304 66.9731 44.5939 67.1957C44.5575 67.4183 44.5947 67.6467 44.7 67.8462C44.8053 68.0456 44.9728 68.2052 45.1772 68.3007C45.3815 68.3962 45.6115 68.4223 45.832 68.3751L56.746 66.0471C56.7942 66.0018 56.8265 65.9422 56.838 65.8771L57.08 66.1271L53.36 69.8171H53.18L31.094 92.0771L38.18 98.9011C38.3782 99.0797 38.6282 99.1905 38.8936 99.2173C39.1591 99.2441 39.4261 99.1855 39.656 99.0501C39.8879 98.9157 40.0736 98.7142 40.1888 98.4721C40.3039 98.2301 40.343 97.9588 40.301 97.6941L39.266 93.1941C39.2015 93.1036 39.1668 92.9952 39.1668 92.8841C39.1668 92.773 39.2015 92.6646 39.266 92.5741C48.9402 87.9622 57.9365 82.0462 66.004 74.9911L61.469 70.4541L61.555 70.4401L58.865 67.7511L59.037 67.5771L59.219 67.7631L59.125 67.8541L66.262 75.1471V75.1441C79.942 62.1901 89.652 51.7771 87.127 44.7691C87.012 43.931 86.6227 43.1547 86.02 42.5611V42.5651C85.867 42.451 85.7055 42.3488 85.537 42.2591C85.454 42.1711 85.381 42.0811 85.293 41.9951L85.227 42.0611C85.0417 41.9479 84.847 41.8509 84.645 41.7711L84.934 41.4791C83.138 39.8791 81.654 38.5551 79.434 38.5491V38.5511ZM30.94 92.2101L25.769 97.3821V97.3861C25.5835 97.501 25.4392 97.6719 25.3571 97.8741C25.275 98.0763 25.2592 98.2994 25.312 98.5111C25.363 98.7228 25.4795 98.913 25.6448 99.0546C25.8102 99.1963 26.016 99.2822 26.233 99.3001L38.905 100.175L30.94 92.2101Z" fill="white"/>
<path d="M91.95 23.3101C89.0476 23.3065 86.2605 24.4452 84.191 26.4801C82.7184 27.9871 81.7102 29.8856 81.2865 31.9496C80.8627 34.0135 81.0413 36.1558 81.801 38.1211C77.06 36.0911 70.646 39.6311 50.695 59.5781C50.681 59.6087 50.6686 59.6401 50.658 59.6721C50.6172 59.6906 50.5775 59.7113 50.539 59.7341L44.23 66.0981C43.9276 66.3949 43.729 66.7813 43.6636 67.1999C43.5982 67.6186 43.6695 68.0472 43.867 68.4221C44.0433 68.7187 44.2928 68.965 44.5918 69.1373C44.8907 69.3096 45.229 69.4022 45.574 69.4061L45.887 69.2031L54.311 67.4061L50.281 71.4731C50.2575 71.5265 50.2394 71.5821 50.227 71.6391L30.477 91.4381C30.3982 91.5043 30.333 91.5851 30.285 91.6761L25.199 96.7661C24.9455 97.0336 24.7723 97.367 24.6991 97.7282C24.6259 98.0894 24.6557 98.4639 24.785 98.8091C24.9176 99.1521 25.1424 99.4517 25.4347 99.675C25.7269 99.8982 26.0752 100.036 26.441 100.074L39.059 100.954C39.2742 100.878 39.4575 100.732 39.579 100.539C39.6875 100.388 39.7458 100.207 39.7458 100.022C39.7458 99.8358 39.6875 99.6548 39.579 99.5041L39.553 99.4791C39.8253 99.3361 40.0652 99.1387 40.258 98.8991C40.4606 98.6361 40.6022 98.3313 40.6724 98.0068C40.7426 97.6823 40.7398 97.3463 40.664 97.0231L39.68 92.8361C49.1204 88.3244 57.9657 82.661 66.014 75.9751C66.0921 76.0195 66.1754 76.0541 66.262 76.0781C66.516 76.0591 66.754 75.9501 66.934 75.7701C80.484 62.9401 88.449 54.1481 88.449 47.1681C88.4784 46.1998 88.3324 45.2343 88.018 44.3181C89.2391 44.8244 90.5417 45.1056 91.863 45.1481L91.848 45.1521C93.6677 45.0964 95.4466 44.5988 97.031 43.7021C97.0323 43.7024 97.0336 43.7027 97.035 43.7031C97.2401 43.7645 97.461 43.7448 97.652 43.6481C98.4165 43.1979 99.1134 42.6417 99.722 41.9961C100.753 40.9842 101.572 39.777 102.132 38.445C102.691 37.113 102.98 35.6828 102.98 34.2381C102.98 32.7934 102.692 31.3633 102.132 30.0313C101.573 28.6992 100.754 27.492 99.723 26.4801C99.6861 26.4466 99.6467 26.4162 99.605 26.3891C97.5465 24.4125 94.8028 23.3095 91.949 23.3111L91.95 23.3101ZM91.863 25.0821C93.8838 25.0941 95.8454 25.7662 97.449 26.9961L89.381 35.1131C89.3533 35.1438 89.3279 35.1766 89.305 35.2111C89.1596 35.3582 89.0743 35.5544 89.066 35.7611C89.066 35.886 89.0942 36.0092 89.1484 36.1218C89.2025 36.2343 89.2814 36.3332 89.379 36.4111H89.381L95.481 42.5111C93.8112 43.2392 91.9606 43.4461 90.1712 43.1048C88.3819 42.7634 86.7374 41.8897 85.453 40.5981C82.867 37.9981 82.117 34.0941 83.5 30.7071C84.883 27.3171 88.18 25.1021 91.863 25.0821ZM98.983 28.5141C100.302 30.1101 101.021 32.1174 101.016 34.1881C101.012 36.6139 100.045 38.9389 98.328 40.6521C97.9836 40.976 97.6167 41.2751 97.23 41.5471L92.307 36.7001L91.344 35.7371L91.609 35.4721L98.982 28.5121L98.983 28.5141ZM98.617 32.7071C98.436 32.6499 98.2404 32.6609 98.067 32.7381C97.8954 32.8269 97.766 32.9801 97.707 33.1641C97.678 33.2559 97.6675 33.3526 97.6761 33.4486C97.6847 33.5445 97.7122 33.6378 97.757 33.7231C97.9347 34.0967 98.0048 34.5124 97.9594 34.9236C97.914 35.3348 97.7549 35.7252 97.5 36.0511C97.4348 36.114 97.3837 36.19 97.3501 36.2741C97.3165 36.3583 97.3011 36.4486 97.305 36.5391C97.309 36.7231 97.375 36.8991 97.5 37.0311C97.6333 37.082 97.7807 37.082 97.914 37.0311C98.0342 37.0611 98.1604 37.0577 98.2788 37.0212C98.3972 36.9847 98.5035 36.9165 98.586 36.8241C99.0115 36.3023 99.2809 35.6709 99.3632 35.0026C99.4454 34.3344 99.3372 33.6565 99.051 33.0471V33.0511C98.9535 32.887 98.799 32.7645 98.617 32.7071ZM79.34 39.4301C80.5468 39.4701 81.7082 39.9003 82.65 40.6561C81.6352 40.8021 80.6949 41.2721 79.969 41.9961L57.162 64.7011L52.686 60.2251C64.514 48.4531 71.746 42.3041 76.242 40.2891C77.168 39.7049 78.2453 39.4068 79.34 39.4301ZM83.305 42.3901C84.0708 42.3901 84.8054 42.6936 85.348 43.2341C85.6368 43.5049 85.8646 43.8341 86.0161 44.1998C86.1677 44.5655 86.2396 44.9594 86.227 45.3551C86.2139 45.7493 86.1197 46.1366 85.9502 46.4927C85.7807 46.8489 85.5396 47.1663 85.242 47.4251L60.992 68.5311L58.375 65.9141L81.262 43.2341C81.8047 42.694 82.5393 42.3898 83.305 42.3901ZM86.299 49.0881C84.609 55.7901 75.652 64.8711 66.312 73.6951L62.535 69.9221L86.299 49.0881ZM51.367 61.5471L51.641 61.8171L55.154 65.3301L45.524 67.3901L51.367 61.5471ZM57.16 67.3871L57.164 67.3911L58.332 68.5861C58.3369 68.6143 58.3429 68.6423 58.35 68.6701L58.428 68.6821L58.676 68.9361L59.496 69.7761L54.111 70.4361L57.161 67.3861L57.16 67.3871ZM61.027 71.4631L64.605 75.0391C56.6933 81.618 48.0113 87.211 38.75 91.6951C38.4493 91.8382 38.2075 92.0812 38.0659 92.3826C37.9242 92.684 37.8914 93.0252 37.973 93.3481L39.008 97.8481C39.0461 97.9009 39.0667 97.9644 39.0667 98.0296C39.0667 98.0947 39.0461 98.1582 39.008 98.2111C38.9511 98.2621 38.8774 98.2903 38.801 98.2903C38.7246 98.2903 38.6509 98.2621 38.594 98.2111L32.492 92.0591L51.3 72.9751L61.027 71.4631ZM31.094 93.4031L31.963 94.2171L36.455 98.7091L26.439 98.0611L31.094 93.4031Z" fill="#F37036"/>
</svg>
