<svg width="101" height="100" viewBox="0 0 101 100" fill="none" xmlns="http://www.w3.org/2000/svg">
<g clip-path="url(#clip0_603_804)">
<path d="M49.771 0.0283203C24.3467 0.0283203 25.9341 11.0538 25.9341 11.0538L25.9624 22.4766H50.2243V25.906H16.3259C16.3259 25.906 0.0568695 24.0609 0.0568695 49.7138C0.0568695 75.3675 14.2569 74.4577 14.2569 74.4577H22.7314V62.5534C22.7314 62.5534 22.2745 48.3534 36.7047 48.3534H60.7682C60.7682 48.3534 74.2879 48.5719 74.2879 35.2871V13.3217C74.2879 13.3217 76.3412 0.0283203 49.771 0.0283203ZM36.393 7.70989C36.9663 7.70937 37.5341 7.82192 38.0639 8.04108C38.5936 8.26025 39.075 8.58173 39.4804 8.98713C39.8858 9.39253 40.2073 9.8739 40.4265 10.4037C40.6456 10.9335 40.7582 11.5013 40.7577 12.0746C40.7582 12.6479 40.6456 13.2157 40.4265 13.7455C40.2073 14.2753 39.8858 14.7567 39.4804 15.1621C39.075 15.5675 38.5936 15.8889 38.0639 16.1081C37.5341 16.3273 36.9663 16.4398 36.393 16.4393C35.8196 16.4398 35.2518 16.3273 34.722 16.1081C34.1923 15.8889 33.7109 15.5675 33.3055 15.1621C32.9001 14.7567 32.5786 14.2753 32.3594 13.7455C32.1403 13.2157 32.0277 12.6479 32.0282 12.0746C32.0277 11.5013 32.1403 10.9335 32.3594 10.4037C32.5786 9.8739 32.9001 9.39253 33.3055 8.98713C33.7109 8.58173 34.1923 8.26025 34.722 8.04108C35.2518 7.82192 35.8196 7.70937 36.393 7.70989Z" fill="url(#paint0_linear_603_804)"/>
<path d="M50.4929 99.6573C75.9173 99.6573 74.3298 88.6318 74.3298 88.6318L74.3016 77.2094H50.0392V73.78H83.9376C83.9376 73.78 100.207 75.6251 100.207 49.9714C100.207 24.3181 86.0067 25.2279 86.0067 25.2279H77.5322V37.1318C77.5322 37.1318 77.989 51.3318 63.5588 51.3318H39.4953C39.4953 51.3318 25.9757 51.1134 25.9757 64.3985V86.3643C25.9757 86.3643 23.9227 99.6573 50.4925 99.6573H50.4929ZM63.871 91.9765C63.2977 91.977 62.7299 91.8645 62.2001 91.6453C61.6703 91.4261 61.1889 91.1047 60.7835 90.6993C60.3781 90.2938 60.0566 89.8125 59.8375 89.2827C59.6183 88.7529 59.5058 88.1851 59.5063 87.6118C59.5057 87.0384 59.6182 86.4706 59.8374 85.9408C60.0565 85.4109 60.378 84.9295 60.7834 84.5241C61.1888 84.1186 61.6702 83.7971 62.2 83.5779C62.7298 83.3587 63.2976 83.2462 63.871 83.2467C64.4443 83.2462 65.0121 83.3587 65.5419 83.5779C66.0717 83.797 66.553 84.1185 66.9584 84.5239C67.3638 84.9293 67.6853 85.4107 67.9045 85.9405C68.1237 86.4703 68.2362 87.0381 68.2357 87.6114C68.2362 88.1847 68.1237 88.7525 67.9045 89.2823C67.6853 89.8121 67.3638 90.2935 66.9584 90.6989C66.553 91.1043 66.0717 91.4257 65.5419 91.6449C65.0121 91.8641 64.4443 91.977 63.871 91.9765Z" fill="url(#paint1_linear_603_804)"/>
</g>
<defs>
<linearGradient id="paint0_linear_603_804" x1="962.493" y1="896.132" x2="5925.61" y2="5809.74" gradientUnits="userSpaceOnUse">
<stop stop-color="#387EB8"/>
<stop offset="1" stop-color="#366994"/>
</linearGradient>
<linearGradient id="paint1_linear_603_804" x1="1446.53" y1="1556.99" x2="6776.35" y2="6595.44" gradientUnits="userSpaceOnUse">
<stop stop-color="#FFE052"/>
<stop offset="1" stop-color="#FFC331"/>
</linearGradient>
<clipPath id="clip0_603_804">
<rect width="100.392" height="100" fill="white"/>
</clipPath>
</defs>
</svg>
