<svg width="45" height="41" viewBox="0 0 45 41" fill="none" xmlns="http://www.w3.org/2000/svg">
<g clip-path="url(#clip0_1_157)">
<path d="M36.9915 13.8267C36.5136 13.6627 36.0315 13.5108 35.5459 13.3711C35.6275 13.0377 35.7026 12.7084 35.7693 12.3849C36.8636 7.07246 36.1482 2.79264 33.7045 1.38351C31.3615 0.0326354 27.5298 1.44123 23.66 4.80913C23.2786 5.14164 22.9056 5.48374 22.5415 5.83509C22.2978 5.60145 22.0497 5.37235 21.7975 5.1479C17.7417 1.54685 13.6765 0.0291265 11.2354 1.44228C8.89452 2.79737 8.20136 6.82071 9.18663 11.8554C9.28465 12.3541 9.39533 12.8501 9.51856 13.3432C8.94312 13.5067 8.38785 13.6807 7.85645 13.866C3.10136 15.5239 0.0646973 18.1219 0.0646973 20.8168C0.0646973 23.6002 3.3247 26.3919 8.27733 28.0847C8.67885 28.2214 9.08371 28.3481 9.49154 28.4646C9.35909 28.9956 9.2415 29.5302 9.13891 30.0677C8.19961 35.0151 8.93312 38.9433 11.2677 40.2898C13.6789 41.6804 17.7259 40.2512 21.6665 36.8065C21.986 36.5264 22.2985 36.2385 22.6036 35.9428C22.998 36.3233 23.4028 36.6926 23.8177 37.0505C27.6349 40.3351 31.4047 41.6614 33.737 40.3112C36.1459 38.9167 36.9289 34.6967 35.9124 29.5625C35.8323 29.1602 35.7425 28.76 35.6431 28.3621C35.9273 28.2779 36.2063 28.1912 36.4782 28.1011C41.627 26.3953 44.977 23.6374 44.977 20.8168C44.977 18.1121 41.8422 15.4965 36.9915 13.8267ZM35.8749 26.28C35.6293 26.3612 35.3773 26.4397 35.1205 26.516C34.5521 24.7165 33.785 22.8032 32.8463 20.8261C33.7421 18.8963 34.4796 17.0074 35.0321 15.2197C35.4915 15.3526 35.9373 15.4928 36.3672 15.6407C40.5233 17.0716 43.0584 19.1868 43.0584 20.8168C43.0584 22.553 40.3205 24.8068 35.8749 26.28ZM34.0303 29.9351C34.4798 32.2053 34.5438 34.2579 34.2461 35.8626C33.9787 37.3046 33.4408 38.2658 32.7756 38.6509C31.3603 39.4702 28.3335 38.4053 25.0691 35.5961C24.6832 35.2634 24.3066 34.92 23.9398 34.5663C25.2054 33.1823 26.4701 31.5733 27.7045 29.7863C29.8757 29.5937 31.927 29.2786 33.7872 28.8486C33.8768 29.2088 33.9578 29.5711 34.0303 29.9351ZM15.3763 38.5093C13.9935 38.9975 12.8921 39.0116 12.2263 38.6277C10.8096 37.8107 10.2207 34.6565 11.024 30.4256C11.1195 29.9257 11.2288 29.4285 11.3519 28.9346C13.1915 29.3416 15.2279 29.6342 17.4042 29.8107C18.647 31.5593 19.9482 33.1665 21.2596 34.5739C20.9809 34.8435 20.6956 35.1063 20.404 35.3619C18.6614 36.8851 16.9152 37.9658 15.3763 38.5093ZM8.89803 26.2693C6.70803 25.5207 4.89943 24.5479 3.65979 23.4863C2.54575 22.5325 1.98347 21.5853 1.98347 20.8168C1.98347 19.1814 4.42154 17.0954 8.48803 15.6777C8.98154 15.5058 9.49803 15.3435 10.034 15.1912C10.5961 17.0193 11.3333 18.9307 12.2229 20.8635C11.3217 22.8249 10.574 24.7668 10.0065 26.6165C9.63419 26.5099 9.2646 26.3941 8.89803 26.2693ZM11.0696 11.4868C10.2256 7.17334 10.7861 3.91948 12.1968 3.10281C13.6993 2.23299 17.0217 3.47316 20.5236 6.58264C20.752 6.78586 20.9767 6.9932 21.1975 7.20457C19.8926 8.60579 18.6033 10.2011 17.3715 11.9393C15.2593 12.1351 13.2373 12.4495 11.3784 12.8707C11.2638 12.4121 11.1609 11.9508 11.0696 11.487V11.4868ZM30.4428 16.2707C30.0037 15.5123 29.5483 14.7634 29.077 14.0246C30.51 14.2058 31.8829 14.4463 33.1722 14.7404C32.7852 15.9811 32.3028 17.2781 31.7349 18.6079C31.3198 17.8203 30.889 17.0411 30.4428 16.2707ZM22.5424 8.57579C23.4273 9.53456 24.3136 10.6049 25.1854 11.7663C23.417 11.6828 21.6456 11.6825 19.8772 11.7653C20.7498 10.6146 21.6436 9.54562 22.5424 8.57579ZM14.5914 16.2839C14.1507 17.048 13.728 17.8224 13.3235 18.6063C12.7649 17.2812 12.2868 15.9782 11.8965 14.72C13.1779 14.4333 14.5443 14.199 15.9682 14.0211C15.4916 14.7644 15.0325 15.5188 14.5914 16.2837V16.2839ZM16.0091 27.7491C14.538 27.5849 13.151 27.3626 11.87 27.0837C12.2665 25.803 12.755 24.4723 13.3257 23.1188C13.7319 23.9033 14.1564 24.6781 14.5989 25.4426C15.054 26.2286 15.5252 26.9984 16.0091 27.7491ZM22.5954 33.193C21.6859 32.2119 20.7789 31.1265 19.8931 29.9591C20.7531 29.9928 21.6298 30.01 22.5208 30.01C23.4363 30.01 24.3412 29.9895 25.2319 29.9498C24.3573 31.1383 23.4743 32.2253 22.5954 33.193ZM31.7529 23.0497C32.3533 24.4181 32.8593 25.7418 33.261 27.0005C31.9589 27.2977 30.5529 27.537 29.0715 27.7147C29.5462 26.9622 30.0059 26.2003 30.4503 25.4295C30.9021 24.646 31.3364 23.8525 31.7529 23.0497ZM28.7884 24.4709C28.1081 25.6527 27.3895 26.8121 26.6338 27.9472C25.265 28.0441 23.8931 28.0923 22.5208 28.0916C21.1231 28.0916 19.7636 28.0481 18.4545 27.9632C17.6791 26.8307 16.9468 25.6693 16.2593 24.4814H16.2594C15.5751 23.2998 14.9359 22.0927 14.3431 20.8626C14.9343 19.6323 15.5716 18.4246 16.2536 17.2421L16.2535 17.2423C16.9352 16.0595 17.6617 14.9031 18.4312 13.7754C19.7668 13.6744 21.1365 13.6218 22.5207 13.6218H22.5208C23.9114 13.6218 25.2828 13.6749 26.618 13.7767C27.3798 14.9026 28.1016 16.0551 28.7821 17.2319C29.4663 18.4118 30.1121 19.6136 30.7182 20.8354C30.1183 22.0698 29.4746 23.2824 28.7884 24.4709ZM32.7463 3.04562C34.2501 3.91299 34.835 7.41071 33.8901 11.9975C33.8298 12.2902 33.7621 12.5882 33.6884 12.8905C31.8249 12.4604 29.8015 12.1405 27.6831 11.9418C26.4491 10.1844 25.1703 8.58667 23.8866 7.20351C24.2231 6.87922 24.5675 6.56333 24.9196 6.25614C28.2354 3.37071 31.3343 2.23141 32.7463 3.04562ZM22.5208 16.8063C24.7358 16.8063 26.5314 18.6019 26.5314 20.8168C26.5314 23.0318 24.7358 24.8274 22.5208 24.8274C20.3059 24.8274 18.5103 23.0318 18.5103 20.8168C18.5103 18.6019 20.3059 16.8063 22.5208 16.8063Z" fill="#00D8FF"/>
</g>
<defs>
<clipPath id="clip0_1_157">
<rect width="44.9123" height="40" fill="white" transform="translate(0.0646973 0.875)"/>
</clipPath>
</defs>
</svg>
