<svg width="55" height="41" viewBox="0 0 55 41" fill="none" xmlns="http://www.w3.org/2000/svg">
<g clip-path="url(#clip0_1_149)">
<path d="M46.6232 23.8988C44.7678 23.9083 43.155 24.3552 41.8048 25.0158C41.3092 24.0346 40.8138 23.1604 40.7265 22.5192C40.6292 21.7713 40.5128 21.3146 40.6292 20.4208C40.7459 19.5271 41.2705 18.2544 41.2607 18.1573C41.2511 18.0602 41.144 17.6035 40.0755 17.594C39.0069 17.5842 38.084 17.7979 37.9771 18.0796C37.8703 18.3613 37.6663 19.0025 37.5303 19.6629C37.3457 20.6346 35.3932 24.1025 34.2761 25.9192C33.9165 25.2102 33.6057 24.5883 33.5375 24.0929C33.4405 23.345 33.3238 22.8883 33.4405 21.9946C33.5571 21.1008 34.0817 19.8283 34.0719 19.731C34.0621 19.634 33.9553 19.1773 32.8867 19.1677C31.818 19.1579 30.895 19.3717 30.7884 19.6533C30.6815 19.9352 30.5648 20.5956 30.3415 21.2369C30.118 21.8781 27.5242 27.6681 26.8442 29.164C26.5694 29.7694 26.2811 30.3687 25.9796 30.9613C25.9796 30.9613 25.9698 30.9904 25.9407 31.039C25.8459 31.2248 25.7489 31.4094 25.6494 31.5927V31.6023C25.5036 31.8648 25.3482 32.1075 25.2705 32.1075C25.2121 32.1075 25.1053 31.4081 25.2898 30.456C25.6784 28.4452 26.6013 25.3171 26.5917 25.2102C26.5917 25.1519 26.7665 24.6079 25.9894 24.326C25.2315 24.0444 24.9596 24.5106 24.8915 24.5106C24.8236 24.5106 24.7748 24.6758 24.7748 24.6758C24.7748 24.6758 25.6203 21.1592 23.1623 21.1592C21.6275 21.1592 19.5096 22.8398 18.4605 24.3552C17.2678 25.0043 16.0761 25.6552 14.8855 26.3079C14.3125 26.6285 13.7198 26.9492 13.1661 27.2502C13.1271 27.2115 13.0884 27.1627 13.0494 27.124C10.0767 23.9473 4.57838 21.7031 4.8115 17.4385C4.899 15.8842 5.43317 11.804 15.3713 6.84958C23.5509 2.81792 30.0598 3.935 31.1867 6.41229C32.7992 9.94854 27.6992 16.5156 19.2473 17.4675C16.0221 17.8271 14.3317 16.5835 13.9044 16.1173C13.4575 15.6315 13.3894 15.6023 13.2242 15.6996C12.9523 15.8454 13.1271 16.2825 13.2242 16.535C13.4769 17.1954 14.5163 18.3613 16.2746 18.9346C17.829 19.4396 21.608 19.7215 26.1836 17.9533C31.3032 15.9715 35.3057 10.4633 34.1303 5.84896C32.9546 1.16646 25.183 -0.378124 17.829 2.235C13.4575 3.78958 8.71671 6.2375 5.30692 9.42396C1.25588 13.2125 0.61463 16.5058 0.876921 17.8854C1.81942 22.7815 8.57109 25.9679 11.2717 28.3285C11.1357 28.4062 11.0092 28.4744 10.9025 28.5327C9.55213 29.2029 4.40338 31.8937 3.12109 34.7402C1.664 37.9654 3.35442 40.2777 4.4715 40.5883C7.93963 41.5502 11.5048 39.821 13.4186 36.9648C15.3323 34.1088 15.0992 30.3977 14.2153 28.6977C14.2055 28.6783 14.1959 28.6588 14.1763 28.6394C14.5261 28.4354 14.8855 28.2217 15.2353 28.0177C15.8781 27.6377 16.5292 27.2716 17.188 26.9198C16.8575 27.8233 16.6146 28.9017 16.4982 30.456C16.3523 32.2825 17.1003 34.6527 18.0815 35.5852C18.5188 35.9935 19.0336 36.0031 19.364 36.0031C20.5103 36.0031 21.0253 35.051 21.5984 33.9242C22.2978 32.5448 22.9292 30.9419 22.9292 30.9419C22.9292 30.9419 22.1423 35.2746 24.2796 35.2746C25.0567 35.2746 25.8436 34.2642 26.1934 33.7494V33.759C26.1934 33.759 26.2128 33.7298 26.2517 33.6619C26.3294 33.5356 26.378 33.4577 26.378 33.4577V33.4385C26.6888 32.8944 27.3884 31.6606 28.4278 29.6108C29.7684 26.9685 31.0605 23.6656 31.0605 23.6656C31.0605 23.6656 31.1771 24.4719 31.5753 25.8125C31.8086 26.5994 32.294 27.464 32.6828 28.2994C32.3719 28.7367 32.1775 28.9794 32.1775 28.9794L32.1873 28.9892C31.9346 29.3194 31.6628 29.6788 31.3615 30.0288C30.3025 31.2915 29.0398 32.7392 28.8648 33.1567C28.6607 33.6521 28.7094 34.0117 29.0982 34.3031C29.3798 34.5169 29.8848 34.5458 30.3998 34.5169C31.3519 34.4488 32.0221 34.2156 32.3523 34.07C32.8673 33.8854 33.4696 33.6035 34.033 33.1858C35.0725 32.4183 35.7038 31.3206 35.6457 29.8733C35.6165 29.0767 35.3542 28.28 35.0336 27.5319C35.1309 27.396 35.2182 27.26 35.3155 27.124C36.9571 24.7244 38.2298 22.0917 38.2298 22.0917C38.2298 22.0917 38.3465 22.8979 38.7446 24.2388C38.939 24.9188 39.3373 25.6571 39.6869 26.3758C38.1423 27.6292 37.1903 29.0863 36.8503 30.0383C36.2384 31.8065 36.7142 32.6029 37.6178 32.7875C38.0257 32.875 38.6086 32.6806 39.0361 32.496C39.5801 32.3213 40.2213 32.0202 40.8334 31.5731C41.873 30.8058 42.8734 29.7371 42.815 28.2898C42.7859 27.6292 42.6111 26.9781 42.3682 26.3467C43.6796 25.8029 45.37 25.5017 47.5265 25.7542C52.1509 26.2981 53.064 29.1833 52.889 30.3979C52.7142 31.6121 51.7428 32.2727 51.4223 32.4767C51.1015 32.6808 50.9948 32.7488 51.024 32.8944C51.0628 33.1081 51.2182 33.0985 51.4903 33.0596C51.8692 32.9917 53.919 32.0783 54.0063 29.844C54.1521 26.9879 51.4319 23.8696 46.6232 23.8988ZM10.9511 35.9254C9.41609 37.5963 7.27901 38.2277 6.35609 37.6935C5.36525 37.1202 5.7538 34.6527 7.63838 32.8848C8.78463 31.8065 10.2613 30.8056 11.2425 30.1938C11.4659 30.0577 11.7963 29.8635 12.1946 29.6206C12.2625 29.5817 12.3015 29.5623 12.3015 29.5623L12.5346 29.4165C13.2242 31.9423 12.5638 34.1671 10.9511 35.9254ZM22.123 28.3285C21.5886 29.6304 20.4715 32.9625 19.7915 32.7779C19.2086 32.6225 18.849 30.0967 19.6748 27.6C20.0925 26.3467 20.9765 24.8506 21.4915 24.2679C22.3269 23.3352 23.2498 23.0242 23.4732 23.4033C23.755 23.8988 22.4532 27.5125 22.123 28.3285ZM31.3421 32.739C31.1186 32.8556 30.905 32.9333 30.8078 32.875C30.7398 32.836 30.905 32.6806 30.905 32.6806C30.905 32.6806 32.0611 31.4373 32.5175 30.8738C32.78 30.5435 33.0907 30.155 33.4211 29.7177V29.844C33.4211 31.3304 31.9832 32.331 31.3419 32.739H31.3421ZM38.4532 31.1167C38.288 31 38.3171 30.6115 38.8709 29.3971C39.0846 28.921 39.5896 28.1246 40.4544 27.3571C40.5515 27.6679 40.6196 27.9692 40.6098 28.2508C40.6001 30.1258 39.2596 30.8252 38.4532 31.1167Z" fill="#CD6799"/>
</g>
<defs>
<clipPath id="clip0_1_149">
<rect width="53.3333" height="40" fill="white" transform="translate(0.731323 0.875)"/>
</clipPath>
</defs>
</svg>
