<svg width="41" height="41" viewBox="0 0 41 41" fill="none" xmlns="http://www.w3.org/2000/svg">
<g clip-path="url(#clip0_1_181)">
<path d="M6.36214 6.10598C14.2653 -1.55011 26.9018 -1.34433 34.5579 6.59989C35.4223 5.44739 36.1632 4.17145 36.6984 2.85426C39.2093 10.5104 40.7323 16.9316 40.1559 21.9121C39.8678 26.1105 38.2214 30.1444 35.5046 33.355C28.425 41.7521 15.8293 42.8222 7.4323 35.7425L7.27168 35.5996L7.26308 35.594C7.23666 35.5755 7.21072 35.5564 7.18527 35.5366C7.10871 35.4771 7.03918 35.4122 6.97652 35.3429L6.95402 35.3172L6.69152 35.084C6.43527 34.8644 6.17917 34.6449 5.95199 34.3965L5.86824 34.3018C-1.78801 26.3986 -1.54098 13.7621 6.36199 6.10598H6.36214ZM9.32558 32.9024C8.58464 32.3261 7.51449 32.4083 6.93808 33.1493C6.43152 33.8008 6.43402 34.7069 6.94574 35.3079L6.95386 35.3172L7.27152 35.5996L7.30277 35.6208C8.02214 36.094 8.99027 35.9961 9.5423 35.3274L9.57261 35.2897C10.1489 34.5488 10.0254 33.4786 9.32574 32.9022L9.32558 32.9024ZM36.4928 4.91223C34.4345 9.23426 29.3303 12.5272 24.9261 13.5563C20.7687 14.5441 17.1464 13.721 13.3184 15.2027C4.59214 18.5369 4.75683 28.9096 9.53152 31.2558L9.81964 31.4205C9.81964 31.4205 13.2687 30.7347 16.6793 29.8291L16.9715 29.751C18.3337 29.3838 19.6739 28.9838 20.7687 28.5804C26.449 26.4811 32.7057 21.2947 34.7637 15.285C33.6936 21.5416 28.3014 27.5924 22.909 30.3504C20.0278 31.8321 17.8051 32.1613 13.0715 33.8079C12.4953 34.0136 12.0425 34.2196 12.0425 34.2196L12.2156 34.1961L12.3306 34.1813L12.4451 34.1669C13.4904 34.0372 14.4298 33.9725 14.4298 33.9725C21.1392 33.6432 31.6767 35.866 36.575 29.3213C41.5967 22.653 38.7976 11.8686 36.4926 4.91223H36.4928Z" fill="#6DB33F"/>
<path d="M9.32594 32.9025C10.0258 33.4788 10.1492 34.5489 9.57281 35.2899C8.99672 36.0308 7.92641 36.1131 7.18547 35.5367C6.44469 34.9605 6.36234 33.8903 6.93859 33.1494C7.51484 32.4084 8.585 32.3263 9.32609 32.9025H9.32594ZM36.493 4.91235C38.798 11.8688 41.597 22.6531 36.5753 29.3214C31.6769 35.8661 21.1395 33.6433 14.4302 33.9727C14.4302 33.9727 13.4908 34.0375 12.4455 34.167L12.3309 34.1814C12.2353 34.1936 12.1391 34.2064 12.0428 34.2197C12.0428 34.2197 12.4956 34.0138 13.0719 33.808C17.8055 32.1616 20.0281 31.8322 22.9094 30.3505C28.3017 27.5927 33.6939 21.5417 34.7641 15.2852C32.7061 21.2949 26.4494 26.4813 20.7691 28.5805C16.8588 30.0211 9.82 31.4206 9.82 31.4206L9.53188 31.2559C4.75719 28.9097 4.5925 18.537 13.3187 15.2028C17.1469 13.7211 20.7691 14.5442 24.9266 13.5564C29.3308 12.5274 34.4348 9.23454 36.493 4.91235Z" fill="white"/>
</g>
<defs>
<clipPath id="clip0_1_181">
<rect width="40" height="40" fill="white" transform="translate(0.277344 0.5)"/>
</clipPath>
</defs>
</svg>
