<svg width="41" height="41" viewBox="0 0 41 41" fill="none" xmlns="http://www.w3.org/2000/svg">
<path d="M35.9247 3.375H4.2047C3.29895 3.375 2.5647 4.10925 2.5647 5.015V36.735C2.5647 37.6407 3.29895 38.375 4.2047 38.375H35.9247C36.8304 38.375 37.5647 37.6407 37.5647 36.735V5.015C37.5647 4.10925 36.8304 3.375 35.9247 3.375Z" fill="#3178C6"/>
<path fill-rule="evenodd" clip-rule="evenodd" d="M22.8709 30.5738V34.4088C23.5677 34.7527 24.3103 34.9947 25.0759 35.1275C25.9607 35.2908 26.8587 35.3712 27.7584 35.3675C28.6353 35.3717 29.5101 35.2833 30.3684 35.1038C31.139 34.948 31.8743 34.6514 32.5372 34.2288C33.1526 33.8315 33.6598 33.2877 34.0134 32.6462C34.6467 31.3179 34.7303 29.7933 34.2459 28.4038C34.0416 27.8841 33.737 27.4097 33.3497 27.0075C32.9339 26.5798 32.4616 26.211 31.9459 25.9113C31.3522 25.5635 30.7354 25.257 30.0997 24.9938C29.5997 24.7863 29.1497 24.5846 28.7497 24.3888C28.3944 24.2186 28.0544 24.0183 27.7334 23.79C27.482 23.6138 27.2637 23.3946 27.0884 23.1425C26.937 22.9136 26.8582 22.6444 26.8622 22.37C26.8588 22.1175 26.9292 21.8694 27.0647 21.6563C27.2118 21.4332 27.4081 21.2467 27.6384 21.1112C27.92 20.9455 28.2264 20.826 28.5459 20.7575C28.9382 20.6704 29.3391 20.6284 29.7409 20.6325C30.0789 20.6337 30.4163 20.6579 30.7509 20.705C31.1123 20.7539 31.4698 20.8278 31.8209 20.9263C32.1781 21.0252 32.5274 21.1506 32.8659 21.3013C33.1945 21.4477 33.5087 21.6243 33.8047 21.8288V18.25C33.1886 18.0169 32.5496 17.8493 31.8984 17.75C31.1121 17.6356 30.3181 17.5817 29.5234 17.5888C28.6548 17.5841 27.7888 17.6827 26.9434 17.8825C26.1794 18.0571 25.4528 18.3674 24.7984 18.7988C24.1905 19.2037 23.6886 19.7485 23.3347 20.3875C22.9596 21.0971 22.7741 21.8914 22.7959 22.6938C22.7682 23.7547 23.1177 24.7912 23.7822 25.6188C24.5974 26.5364 25.6254 27.2398 26.7759 27.6675C27.3009 27.8842 27.7905 28.0963 28.2447 28.3038C28.6545 28.4861 29.0483 28.7022 29.4222 28.95C29.7237 29.1462 29.9886 29.3937 30.2047 29.6813C30.3947 29.9421 30.4955 30.2573 30.4922 30.58C30.4939 30.8218 30.4318 31.0598 30.3122 31.27C30.1793 31.4958 29.9924 31.6852 29.7684 31.8213C29.4881 31.9921 29.1815 32.1155 28.8609 32.1863C28.4434 32.2796 28.0163 32.3237 27.5884 32.3175C26.7488 32.316 25.9159 32.1679 25.1272 31.88C24.3032 31.5827 23.5391 31.1403 22.8709 30.5738ZM16.4284 21.0263H21.4284V17.8675H7.48718V21.0263H12.4647V35.0938H16.4284V21.0263Z" fill="white"/>
</svg>
